#VRML V2.0 utf8
# 3D model generated by FastEDA

Shape{
    appearance Appearance {
        material  Material 	{
            diffuseColor 0.03137254901960784 0.6823529411764706 1.0
            specularColor 0.00784313725490196 0.20392156862745098 0.30196078431372547
            ambientIntensity 0.5239
            transparency 0.0
            shininess 0.5
        }
    }
    geometry IndexedFaceSet {
        ccw TRUE
        solid FALSE
        coord DEF co Coordinate {
            point [
                -4.2913 -6.3228 7.9921, -4.2913 -6.3228 0.0, -4.2846 -6.3738 0.0, -4.2846 -6.3738 7.9921, -4.265 -6.4213 0.0, -4.265 -6.4213 7.9921, -4.2337 -6.462 0.0, -4.2337 -6.462 7.9921, -4.1929 -6.4933 0.0, -4.1929 -6.4933 7.9921, -4.1454 -6.513 0.0, -4.1454 -6.513 7.9921, -4.0945 -6.5197 0.0, -4.0945 -6.5197 7.9921, 3.3071 -6.5197 7.9921, 3.3071 -6.5197 0.0, 3.358 -6.513 0.0, 3.358 -6.513 7.9921, 3.4055 -6.4933 0.0, 3.4055 -6.4933 7.9921, 3.4463 -6.462 0.0, 3.4463 -6.462 7.9921, 3.4776 -6.4213 0.0, 3.4776 -6.4213 7.9921, 3.4972 -6.3738 0.0, 3.4972 -6.3738 7.9921, 3.5039 -6.3228 0.0, 3.5039 -6.3228 7.9921, 3.5039 0.9213 7.9921, 3.5039 0.9213 0.0, 3.5106 0.9722 7.9921, 3.5106 0.9722 0.0, 3.5303 1.0197 7.9921, 3.5303 1.0197 0.0, 3.5616 1.0605 7.9921, 3.5616 1.0605 0.0, 3.6024 1.0917 7.9921, 3.6024 1.0917 0.0, 3.6498 1.1114 7.9921, 3.6498 1.1114 0.0, 3.7008 1.1181 7.9921, 3.7008 1.1181 0.0, 5.3937 1.1181 7.9921, 5.3937 1.1181 0.0, 5.4446 1.1248 0.0, 5.4446 1.1248 7.9921, 5.4921 1.1445 0.0, 5.4921 1.1445 7.9921, 5.5329 1.1758 0.0, 5.5329 1.1758 7.9921, 5.5642 1.2165 0.0, 5.5642 1.2165 7.9921, 5.5838 1.264 0.0, 5.5838 1.264 7.9921, 5.5906 1.315 0.0, 5.5906 1.315 7.9921, 5.5906 3.9134 7.9921, 5.5906 3.9134 7.9134, 5.5906 5.8819 7.9134, 5.5906 5.8819 0.0, 5.5838 5.9328 0.0, 5.5838 5.9328 7.9134, 5.5642 5.9803 0.0, 5.5642 5.9803 7.9134, 5.5329 6.0211 0.0, 5.5329 6.0211 7.9134, 5.4921 6.0524 0.0, 5.4921 6.0524 7.9134, 5.4446 6.072 0.0, 5.4446 6.072 7.9134, 5.3937 6.0787 0.0, 5.3937 6.0787 7.9134, 3.4252 6.0787 7.9134, -5.0787 6.0787 0.0, 3.4252 6.0787 7.9921, -5.0787 6.0787 7.9921, -5.1297 6.072 0.0, -5.1297 6.072 7.9921, -5.1772 6.0524 0.0, -5.1772 6.0524 7.9921, -5.2179 6.0211 0.0, -5.2179 6.0211 7.9921, -5.2492 5.9803 0.0, -5.2492 5.9803 7.9921, -5.2689 5.9328 0.0, -5.2689 5.9328 7.9921, -5.2756 5.8819 0.0, -5.2756 5.8819 7.9921, -5.2756 -0.2992 7.9921, -5.2756 -0.2992 0.0, -5.2689 -0.3502 0.0, -5.2689 -0.3502 7.9921, -5.2492 -0.3976 0.0, -5.2492 -0.3976 7.9921, -5.2179 -0.4384 0.0, -5.2179 -0.4384 7.9921, -5.1772 -0.4697 0.0, -5.1772 -0.4697 7.9921, -5.1297 -0.4894 0.0, -5.1297 -0.4894 7.9921, -5.0787 -0.4961 0.0, -5.0787 -0.4961 7.9921, -4.4882 -0.4961 7.9921, -4.4882 -0.4961 0.0, -4.4372 -0.5028 7.9921, -4.4372 -0.5028 0.0, -4.3898 -0.5224 7.9921, -4.3898 -0.5224 0.0, -4.349 -0.5537 7.9921, -4.349 -0.5537 0.0, -4.3177 -0.5945 7.9921, -4.3177 -0.5945 0.0, -4.298 -0.642 7.9921, -4.298 -0.642 0.0, -4.2913 -0.6929 7.9921, -4.2913 -0.6929 0.0, -4.4882 -0.378 8.1102, -5.1575 5.8819 8.1102, -5.1575 -0.2992 8.1102, -0.3937 0.7244 8.1102, -0.2409 0.7043 8.1102, -5.1548 5.9023 8.1102, 3.3966 1.0028 8.1102, 3.5433 1.194 8.1102, 3.3763 5.9606 8.1102, 3.4781 1.144 8.1102, -5.0787 5.9606 8.1102, 3.428 1.0787 8.1102, 3.6193 1.2255 8.1102, 3.7008 1.2362 8.1102, 5.4724 3.8645 8.1102, 5.3937 1.2362 8.1102, 5.4724 1.315 8.1102, -5.1181 -0.3674 8.1102, -5.0991 -0.3753 8.1102, -5.0787 -0.378 8.1102, 3.3858 -6.3228 8.1102, 3.3858 0.9213 8.1102, 0.1767 -0.019 8.1102, -0.9051 0.4291 8.1102, -0.8113 0.5514 8.1102, -0.0984 0.6453 8.1102, 0.0239 0.5514 8.1102, 0.1177 0.4291 8.1102, 0.1767 0.2867 8.1102, 0.1969 0.1339 8.1102, -5.0991 5.9579 8.1102, -5.1181 5.9501 8.1102, 5.4494 1.2593 8.1102, 5.4331 1.2468 8.1102, 5.4141 1.2389 8.1102, -5.1548 -0.3196 8.1102, -5.1469 -0.3386 8.1102, -5.1344 -0.3549 8.1102, -0.689 0.6453 8.1102, -0.5465 0.7043 8.1102, -5.1344 5.9376 8.1102, -5.1469 5.9213 8.1102, 5.4619 1.2756 8.1102, 5.4698 1.2946 8.1102, 0.1177 -0.1614 8.1102, 0.0239 -0.2837 8.1102, 3.3831 -6.3432 8.1102, -0.0984 -0.3776 8.1102, 3.3753 -6.3622 8.1102, 3.3628 -6.3785 8.1102, -4.4067 -0.3887 8.1102, -4.3307 -0.4201 8.1102, -4.2655 -0.4702 8.1102, -4.2154 -0.5354 8.1102, -0.9641 0.2867 8.1102, -4.184 -0.6114 8.1102, -0.9843 0.1339 8.1102, -4.0945 -6.4016 8.1102, 3.3071 -6.4016 8.1102, -0.2409 -0.4366 8.1102, 3.3275 -6.3989 8.1102, 3.3465 -6.391 8.1102, -4.1627 -6.3622 8.1102, -4.1502 -6.3785 8.1102, -0.689 -0.3776 8.1102, -0.9641 -0.019 8.1102, -4.1732 -0.6929 8.1102, -0.9051 -0.1614 8.1102, -0.3937 -0.4567 8.1102, -0.5465 -0.4366 8.1102, -4.1149 -6.3989 8.1102, -4.1339 -6.391 8.1102, -0.8113 -0.2837 8.1102, -4.1732 -6.3228 8.1102, -4.1705 -6.3432 8.1102, -0.5906 0.1339 7.9134, -0.9843 0.1339 7.9134, -0.5838 0.0829 7.9134, -0.9641 -0.019 7.9134, -0.5642 0.0354 7.9134, -0.9051 -0.1614 7.9134, -0.5329 -0.0053 7.9134, -0.8113 -0.2837 7.9134, -0.4921 -0.0366 7.9134, -0.689 -0.3776 7.9134, -0.4446 -0.0563 7.9134, -0.5465 -0.4366 7.9134, -0.3937 -0.063 7.9134, -0.3937 -0.4567 7.9134, -0.3428 -0.0563 7.9134, -0.2409 -0.4366 7.9134, -0.2953 -0.0366 7.9134, -0.0984 -0.3776 7.9134, -0.2545 -0.0053 7.9134, 0.0239 -0.2837 7.9134, -0.2232 0.0354 7.9134, 0.1177 -0.1614 7.9134, -0.2036 0.0829 7.9134, 0.1767 -0.019 7.9134, -0.1969 0.1339 7.9134, 0.1969 0.1339 7.9134, -0.2036 0.1848 7.9134, 0.1767 0.2867 7.9134, -0.2232 0.2323 7.9134, 0.1177 0.4291 7.9134, -0.2545 0.2731 7.9134, 0.0239 0.5514 7.9134, -0.2953 0.3043 7.9134, -0.0984 0.6453 7.9134, -0.3428 0.324 7.9134, -0.2409 0.7043 7.9134, -0.3937 0.3307 7.9134, -0.3937 0.7244 7.9134, -0.4446 0.324 7.9134, -0.5465 0.7043 7.9134, -0.4921 0.3043 7.9134, -0.689 0.6453 7.9134, -0.5329 0.2731 7.9134, -0.8113 0.5514 7.9134, -0.5642 0.2323 7.9134, -0.9051 0.4291 7.9134, -0.5838 0.1848 7.9134, -0.9641 0.2867 7.9134, -0.1969 0.1339 8.1102, -0.2036 0.1848 8.1102, -0.2232 0.2323 8.1102, -0.2545 0.2731 8.1102, -0.2953 0.3043 8.1102, -0.3428 0.324 8.1102, -0.3937 0.3307 8.1102, -0.4446 0.324 8.1102, -0.4921 0.3043 8.1102, -0.5329 0.2731 8.1102, -0.5642 0.2323 8.1102, -0.5838 0.1848 8.1102, -0.5906 0.1339 8.1102, -0.5838 0.0829 8.1102, -0.5642 0.0354 8.1102, -0.5329 -0.0053 8.1102, -0.4921 -0.0366 8.1102, -0.4446 -0.0563 8.1102, -0.3937 -0.063 8.1102, -0.3428 -0.0563 8.1102, -0.2953 -0.0366 8.1102, -0.2545 -0.0053 8.1102, -0.2232 0.0354 8.1102, -0.2036 0.0829 8.1102, 5.0 5.2913 7.9134, 4.9491 5.298 7.9134, 5.1705 5.3898 7.9134, 5.1392 5.349 7.9134, 4.8099 5.4372 7.9134, 4.8031 5.4882 7.9134, 4.8099 5.5391 7.9134, 4.8295 5.5866 7.9134, 4.8608 5.6274 7.9134, 5.1705 5.5866 7.9134, 5.1901 5.5391 7.9134, 5.1969 5.4882 7.9134, 5.1901 5.4372 7.9134, 5.0984 5.3177 7.9134, 5.0509 5.298 7.9134, 5.1392 5.6274 7.9134, 4.9016 5.3177 7.9134, 4.8608 5.349 7.9134, 4.8295 5.3898 7.9134, 5.0984 5.6587 7.9134, 5.0509 5.6783 7.9134, 4.9016 5.6587 7.9134, 4.9491 5.6783 7.9134, 5.0 5.685 7.9134, 5.1969 5.4882 8.1102, 5.1901 5.5391 8.1102, 5.1705 5.5866 8.1102, 5.1392 5.6274 8.1102, 5.0984 5.6587 8.1102, 5.0509 5.6783 8.1102, 5.0 5.685 8.1102, 4.9491 5.6783 8.1102, 4.9016 5.6587 8.1102, 4.8608 5.6274 8.1102, 4.8295 5.5866 8.1102, 4.8099 5.5391 8.1102, 4.8031 5.4882 8.1102, 4.8099 5.4372 8.1102, 4.8295 5.3898 8.1102, 4.8608 5.349 8.1102, 4.9016 5.3177 8.1102, 4.9491 5.298 8.1102, 5.0 5.2913 8.1102, 5.0509 5.298 8.1102, 5.0984 5.3177 8.1102, 5.1392 5.349 8.1102, 5.1705 5.3898 8.1102, 5.1901 5.4372 8.1102, -0.3937 0.1339 8.1102, 5.0 5.4882 8.1102, 3.3071 -6.5157 8.0227, -4.0945 -6.5157 8.0227, 3.3071 -6.5039 8.0512, -4.0945 -6.5039 8.0512, 3.3071 -6.4851 8.0756, -4.0945 -6.4851 8.0756, 3.3071 -6.4606 8.0944, -4.0945 -6.4606 8.0944, 3.3071 -6.4321 8.1062, -4.0945 -6.4321 8.1062, 3.357 -6.5091 8.0227, 3.3539 -6.4977 8.0512, 3.3491 -6.4796 8.0756, 3.3428 -6.4559 8.0944, 3.3354 -6.4284 8.1062, 3.4035 -6.4898 8.0227, 3.3976 -6.4796 8.0512, 3.3882 -6.4634 8.0756, 3.376 -6.4422 8.0944, 3.3617 -6.4175 8.1062, 3.4434 -6.4592 8.0227, 3.4351 -6.4508 8.0512, 3.4218 -6.4376 8.0756, 3.4045 -6.4203 8.0944, 3.3844 -6.4001 8.1062, 3.4741 -6.4192 8.0227, 3.4639 -6.4133 8.0512, 3.4476 -6.404 8.0756, 3.4264 -6.3917 8.0944, 3.4018 -6.3775 8.1062, 3.4933 -6.3727 8.0227, 3.4819 -6.3697 8.0512, 3.4638 -6.3648 8.0756, 3.4402 -6.3585 8.0944, 3.4127 -6.3511 8.1062, 3.4999 -6.3228 8.0227, 3.4881 -6.3228 8.0512, 3.4693 -6.3228 8.0756, 3.4449 -6.3228 8.0944, 3.4164 -6.3228 8.1062, -4.2873 -6.3228 8.0227, -4.2807 -6.3727 8.0227, -4.2755 -6.3228 8.0512, -4.2693 -6.3697 8.0512, -4.2567 -6.3228 8.0756, -4.2512 -6.3648 8.0756, -4.2323 -6.3228 8.0944, -4.2276 -6.3585 8.0944, -4.2038 -6.3228 8.1062, -4.2001 -6.3511 8.1062, -4.2615 -6.4192 8.0227, -4.2513 -6.4133 8.0512, -4.235 -6.404 8.0756, -4.2138 -6.3917 8.0944, -4.1892 -6.3775 8.1062, -4.2308 -6.4592 8.0227, -4.2225 -6.4508 8.0512, -4.2092 -6.4376 8.0756, -4.1919 -6.4203 8.0944, -4.1718 -6.4001 8.1062, -4.1909 -6.4898 8.0227, -4.185 -6.4796 8.0512, -4.1756 -6.4634 8.0756, -4.1634 -6.4422 8.0944, -4.1491 -6.4175 8.1062, -4.1444 -6.5091 8.0227, -4.1413 -6.4977 8.0512, -4.1365 -6.4796 8.0756, -4.1302 -6.4559 8.0944, -4.1228 -6.4284 8.1062, 3.4999 0.9213 8.0227, 3.4881 0.9213 8.0512, 3.4693 0.9213 8.0756, 3.4449 0.9213 8.0944, 3.4164 0.9213 8.1062, -4.2873 -0.6929 8.0227, -4.2755 -0.6929 8.0512, -4.2567 -0.6929 8.0756, -4.2323 -0.6929 8.0944, -4.2038 -0.6929 8.1062, 3.7008 1.2057 8.1062, 3.6272 1.196 8.1062, 3.7008 1.1772 8.0944, 3.6346 1.1684 8.0944, 3.7008 1.1527 8.0756, 3.6409 1.1448 8.0756, 3.7008 1.1339 8.0512, 3.6457 1.1267 8.0512, 3.7008 1.1221 8.0227, 3.6488 1.1153 8.0227, 3.5586 1.1676 8.1062, 3.5728 1.1429 8.0944, 3.5851 1.1217 8.0756, 3.5945 1.1054 8.0512, 3.6003 1.0952 8.0227, 3.4997 1.1224 8.1062, 3.5198 1.1022 8.0944, 3.5371 1.0849 8.0756, 3.5504 1.0716 8.0512, 3.5587 1.0633 8.0227, 3.4545 1.0635 8.1062, 3.4792 1.0492 8.0944, 3.5004 1.037 8.0756, 3.5166 1.0276 8.0512, 3.5268 1.0217 8.0227, 3.4261 0.9949 8.1062, 3.4536 0.9875 8.0944, 3.4772 0.9812 8.0756, 3.4954 0.9763 8.0512, 3.5068 0.9733 8.0227, -4.2135 -0.6193 8.1062, -4.241 -0.6267 8.0944, -4.2646 -0.633 8.0756, -4.2828 -0.6379 8.0512, -4.2942 -0.6409 8.0227, -4.2419 -0.5507 8.1062, -4.2666 -0.565 8.0944, -4.2878 -0.5772 8.0756, -4.304 -0.5866 8.0512, -4.3142 -0.5925 8.0227, -4.2871 -0.4918 8.1062, -4.3072 -0.512 8.0944, -4.3245 -0.5293 8.0756, -4.3378 -0.5425 8.0512, -4.3461 -0.5509 8.0227, -4.346 -0.4466 8.1062, -4.3602 -0.4713 8.0944, -4.3725 -0.4925 8.0756, -4.3819 -0.5087 8.0512, -4.3878 -0.5189 8.0227, -4.4146 -0.4182 8.1062, -4.422 -0.4457 8.0944, -4.4283 -0.4694 8.0756, -4.4331 -0.4875 8.0512, -4.4362 -0.4989 8.0227, -4.4882 -0.4085 8.1062, -4.4882 -0.437 8.0944, -4.4882 -0.4615 8.0756, -4.4882 -0.4802 8.0512, -4.4882 -0.492 8.0227, 5.3937 1.1221 8.0227, 5.3937 1.1339 8.0512, 5.3937 1.1527 8.0756, 5.3937 1.1772 8.0944, 5.3937 1.2057 8.1062, -5.0787 -0.492 8.0227, -5.0787 -0.4802 8.0512, -5.0787 -0.4615 8.0756, -5.0787 -0.437 8.0944, -5.0787 -0.4085 8.1062, 5.5871 1.315 8.0183, 5.58 1.2651 8.0227, 5.5865 1.315 8.0227, 5.5781 1.315 8.0431, 5.5686 1.2681 8.0512, 5.5747 1.315 8.0512, 5.564 1.315 8.0652, 5.5504 1.273 8.0756, 5.556 1.315 8.0756, 5.5455 1.315 8.0837, 5.5268 1.2793 8.0944, 5.4436 1.1287 8.0227, 5.4406 1.1401 8.0512, 5.4357 1.1582 8.0756, 5.4294 1.1819 8.0944, 5.422 1.2094 8.1062, 5.4901 1.148 8.0227, 5.4842 1.1582 8.0512, 5.4748 1.1744 8.0756, 5.4626 1.1956 8.0944, 5.4484 1.2203 8.1062, 5.53 1.1786 8.0227, 5.5217 1.187 8.0512, 5.5084 1.2002 8.0756, 5.4911 1.2175 8.0944, 5.471 1.2377 8.1062, 5.5607 1.2186 8.0227, 5.5505 1.2244 8.0512, 5.5342 1.2338 8.0756, 5.513 1.2461 8.0944, 5.4884 1.2603 8.1062, 5.4993 1.2867 8.1062, 5.5315 1.315 8.0944, 5.5234 1.315 8.0978, 5.503 1.315 8.1062, 5.4987 1.315 8.1068, -5.2716 -0.2992 8.0227, -5.265 -0.3491 8.0227, -5.2598 -0.2992 8.0512, -5.2536 -0.3461 8.0512, -5.241 -0.2992 8.0756, -5.2355 -0.3412 8.0756, -5.2165 -0.2992 8.0944, -5.2118 -0.3349 8.0944, -5.188 -0.2992 8.1062, -5.1843 -0.3275 8.1062, -5.2457 -0.3956 8.0227, -5.2355 -0.3897 8.0512, -5.2193 -0.3803 8.0756, -5.1981 -0.3681 8.0944, -5.1734 -0.3539 8.1062, -5.2151 -0.4356 8.0227, -5.2067 -0.4272 8.0512, -5.1935 -0.4139 8.0756, -5.1762 -0.3966 8.0944, -5.156 -0.3765 8.1062, -5.1752 -0.4662 8.0227, -5.1693 -0.456 8.0512, -5.1599 -0.4397 8.0756, -5.1476 -0.4185 8.0944, -5.1334 -0.3939 8.1062, -5.1286 -0.4855 8.0227, -5.1256 -0.4741 8.0512, -5.1207 -0.4559 8.0756, -5.1144 -0.4323 8.0944, -5.107 -0.4048 8.1062, 5.4987 3.8753 8.1068, 5.503 3.8771 8.1062, 5.5234 3.8856 8.0978, 5.5315 3.8889 8.0944, 5.5455 3.8947 8.0837, 5.556 3.8991 8.0756, 5.5648 3.9027 8.0658, 5.5742 3.9066 8.0508, 5.5789 3.9085 8.0434, 5.5861 3.9116 8.0226, 5.5876 3.9122 8.0184, -5.2716 5.8819 8.0227, -5.2598 5.8819 8.0512, -5.241 5.8819 8.0756, -5.2165 5.8819 8.0944, -5.188 5.8819 8.1062, 3.3889 5.9912 8.1062, 3.4007 6.0197 8.0944, 3.4109 6.0441 8.0756, 3.4151 6.0543 8.064, 3.4186 6.0629 8.0512, 3.4215 6.0698 8.0373, 3.4235 6.0747 8.0227, 3.4248 6.0777 8.0075, -5.0787 6.0747 8.0227, -5.1286 6.0681 8.0227, -5.0787 6.0629 8.0512, -5.1256 6.0568 8.0512, -5.0787 6.0441 8.0756, -5.1207 6.0386 8.0756, -5.0787 6.0197 8.0944, -5.1144 6.015 8.0944, -5.0787 5.9912 8.1062, -5.107 5.9875 8.1062, -5.1752 6.0489 8.0227, -5.1693 6.0387 8.0512, -5.1599 6.0224 8.0756, -5.1476 6.0012 8.0944, -5.1334 5.9766 8.1062, -5.2151 6.0182 8.0227, -5.2067 6.0099 8.0512, -5.1935 5.9966 8.0756, -5.1762 5.9793 8.0944, -5.156 5.9592 8.1062, -5.2457 5.9783 8.0227, -5.2355 5.9724 8.0512, -5.2193 5.963 8.0756, -5.1981 5.9508 8.0944, -5.1734 5.9365 8.1062, -5.265 5.9318 8.0227, -5.2536 5.9287 8.0512, -5.2355 5.9239 8.0756, -5.2118 5.9176 8.0944, -5.1843 5.9102 8.1062, -5.0787 -0.4173 0.0, -5.1093 -0.4133 0.0, -5.1378 -0.4015 0.0, -5.1623 -0.3827 0.0, -5.181 -0.3583 0.0, -5.1928 -0.3298 0.0, -5.1969 -0.2992 0.0, -5.1969 5.8819 0.0, -5.1928 5.9125 0.0, -5.181 5.9409 0.0, -5.1623 5.9654 0.0, -5.1378 5.9842 0.0, -5.1093 5.996 0.0, -5.0787 6.0 0.0, 5.3937 6.0 0.0, 5.4243 5.996 0.0, 5.4528 5.9842 0.0, 5.4772 5.9654 0.0, 5.496 5.9409 0.0, 5.5078 5.9125 0.0, 5.5118 5.8819 0.0, 5.5118 1.315 0.0, 5.5078 1.2844 0.0, 5.496 1.2559 0.0, 5.4772 1.2314 0.0, 5.4528 1.2127 0.0, 5.4243 1.2009 0.0, 5.3937 1.1969 0.0, 3.7008 1.1969 0.0, 3.6295 1.1875 0.0, 3.563 1.1599 0.0, 3.5059 1.1161 0.0, 3.4621 1.0591 0.0, 3.4346 0.9926 0.0, 3.4252 0.9213 0.0, 3.4252 -6.3228 0.0, 3.4212 -6.3534 0.0, 3.4094 -6.3819 0.0, 3.3906 -6.4063 0.0, 3.3661 -6.4251 0.0, 3.3377 -6.4369 0.0, 3.3071 -6.4409 0.0, -4.0945 -6.4409 0.0, -4.1251 -6.4369 0.0, -4.1535 -6.4251 0.0, -4.178 -6.4063 0.0, -4.1968 -6.3819 0.0, -4.2086 -6.3534 0.0, -4.2126 -6.3228 0.0, -4.2126 -0.6929 0.0, -4.222 -0.6216 0.0, -4.2495 -0.5551 0.0, -4.2933 -0.498 0.0, -4.3504 -0.4542 0.0, -4.4169 -0.4267 0.0, -4.4882 -0.4173 0.0, 5.5118 5.8819 0.0787, 5.5078 5.9125 0.0787, 5.496 5.9409 0.0787, 5.4772 5.9654 0.0787, 5.4528 5.9842 0.0787, 5.4243 5.996 0.0787, 5.3937 6.0 0.0787, 5.5118 1.5512 0.0787, 5.5118 1.315 0.0787, 5.3937 1.1969 0.0787, 5.4243 1.2009 0.0787, 5.4528 1.2127 0.0787, 5.4772 1.2314 0.0787, 5.496 1.2559 0.0787, 5.5078 1.2844 0.0787, 4.6555 1.1969 0.0787, 3.7008 1.1969 0.0787, 3.4252 0.9213 0.0787, 3.4346 0.9926 0.0787, 3.4621 1.0591 0.0787, 3.5059 1.1161 0.0787, 3.563 1.1599 0.0787, 3.6295 1.1875 0.0787, 3.4252 0.5348 0.0787, 3.4252 -6.3228 0.0787, 3.4252 -5.7913 0.0787, 3.4252 -4.4035 0.0787, 3.4252 0.1363 0.0787, 3.3071 -6.4409 0.0787, 3.3377 -6.4369 0.0787, 3.3661 -6.4251 0.0787, 3.3906 -6.4063 0.0787, 3.4094 -6.3819 0.0787, 3.4212 -6.3534 0.0787, -4.0945 -6.4409 0.0787, -2.7067 -6.4409 0.0787, -1.5224 -6.4409 0.0787, 0.2101 -6.4409 0.0787, 1.184 -6.4409 0.0787, 2.6575 -6.4409 0.0787, -0.7657 -6.4409 0.0787, -0.396 -6.4409 0.0787, -0.108 -6.4409 0.0787, -4.2126 -6.3228 0.0787, -4.2086 -6.3534 0.0787, -4.1968 -6.3819 0.0787, -4.178 -6.4063 0.0787, -4.1535 -6.4251 0.0787, -4.1251 -6.4369 0.0787, -4.2126 -0.6929 0.0787, -4.2126 -4.4035 0.0787, -4.2126 -5.7913 0.0787, -4.4882 -0.4173 0.0787, -4.4169 -0.4267 0.0787, -4.3504 -0.4542 0.0787, -4.2933 -0.498 0.0787, -4.2495 -0.5551 0.0787, -4.222 -0.6216 0.0787, -5.0787 -0.4173 0.0787, -5.1969 -0.2992 0.0787, -5.1928 -0.3298 0.0787, -5.181 -0.3583 0.0787, -5.1623 -0.3827 0.0787, -5.1378 -0.4015 0.0787, -5.1093 -0.4133 0.0787, -5.1969 0.1363 0.0787, -5.1969 5.8819 0.0787, -5.1969 1.5512 0.0787, -5.1969 0.5348 0.0787, -5.0787 6.0 0.0787, -5.1093 5.996 0.0787, -5.1378 5.9842 0.0787, -5.1623 5.9654 0.0787, -5.181 5.9409 0.0787, -5.1928 5.9125 0.0787, 4.6555 6.0 0.0787, 2.6575 6.0 0.0787, -2.7067 6.0 0.0787, 1.184 6.0 0.0787, 0.2101 6.0 0.0787, -0.108 6.0 0.0787, -0.396 6.0 0.0787, -0.7657 6.0 0.0787, -1.5224 6.0 0.0787, -0.8886 0.2924 0.0787, -1.0203 0.2924 0.0787, -0.9474 0.4568 0.0787, -0.961 0.4568 0.0787, -0.9512 0.4705 0.0787, -0.9576 0.4707 0.0787, -0.9537 0.4844 0.0787, -0.5453 0.4892 0.0787, -0.4873 0.4892 0.0787, -0.6912 0.2921 0.0787, -0.6826 0.2619 0.0787, -0.6206 0.4739 0.0787, -0.5913 0.4822 0.0787, -0.6853 0.3926 0.0787, -0.6985 0.3394 0.0787, -0.4873 0.1819 0.0787, -0.5432 0.1819 0.0787, -0.5984 0.1953 0.0787, -0.6388 0.2116 0.0787, -0.6595 0.2263 0.0787, -0.6723 0.2414 0.0787, -0.6406 0.4638 0.0787, -0.6694 0.4317 0.0787, -0.655 0.4517 0.0787
            ]
        }
        coordIndex [
            0,1,2,-1,0,2,3,-1,3,2,4,-1,3,4,5,-1,5,4,6,-1,5,6,7,-1,7,6,8,-1,7,8,9,-1,9,8,10,-1,9,10,11,-1,11,10,12,-1,11,12,13,-1,13,12,14,-1,14,12,15,-1,14,15,16,-1,14,16,17,-1,17,16,18,-1,17,18,19,-1,19,18,20,-1,19,20,21,-1,21,20,22,-1,21,22,23,-1,23,22,24,-1,23,24,25,-1,25,24,26,-1,25,26,27,-1,27,26,28,-1,28,26,29,-1,28,29,30,-1,30,29,31,-1,30,31,32,-1,32,31,33,-1,32,33,34,-1,34,33,35,-1,34,35,36,-1,36,35,37,-1,36,37,38,-1,38,37,39,-1,38,39,40,-1,40,39,41,-1,40,41,42,-1,42,41,43,-1,42,43,44,-1,42,44,45,-1,45,44,46,-1,45,46,47,-1,47,46,48,-1,47,48,49,-1,49,48,50,-1,49,50,51,-1,51,50,52,-1,51,52,53,-1,53,52,54,-1,53,54,55,-1,56,55,57,-1,57,55,54,-1,57,54,58,-1,58,54,59,-1,58,59,60,-1,58,60,61,-1,61,60,62,-1,61,62,63,-1,63,62,64,-1,63,64,65,-1,65,64,66,-1,65,66,67,-1,67,66,68,-1,67,68,69,-1,69,68,70,-1,69,70,71,-1,71,70,72,-1,72,70,73,-1,72,73,74,-1,74,73,75,-1,75,73,76,-1,75,76,77,-1,77,76,78,-1,77,78,79,-1,79,78,80,-1,79,80,81,-1,81,80,82,-1,81,82,83,-1,83,82,84,-1,83,84,85,-1,85,84,86,-1,85,86,87,-1,87,86,88,-1,88,86,89,-1,88,89,90,-1,88,90,91,-1,91,90,92,-1,91,92,93,-1,93,92,94,-1,93,94,95,-1,95,94,96,-1,95,96,97,-1,97,96,98,-1,97,98,99,-1,99,98,100,-1,99,100,101,-1,101,100,102,-1,102,100,103,-1,102,103,104,-1,104,103,105,-1,104,105,106,-1,106,105,107,-1,106,107,108,-1,108,107,109,-1,108,109,110,-1,110,109,111,-1,110,111,112,-1,112,111,113,-1,112,113,114,-1,114,113,115,-1,114,115,0,-1,0,115,1,-1,116,117,118,-1,119,120,117,-1,121,117,122,-1,123,124,125,-1,125,124,126,-1,125,126,127,-1,123,128,124,-1,124,128,129,-1,124,129,130,-1,130,129,131,-1,130,131,132,-1,133,134,118,-1,118,134,135,-1,118,135,116,-1,136,137,138,-1,117,139,140,-1,117,120,122,-1,122,120,141,-1,122,141,142,-1,142,143,122,-1,122,143,144,-1,122,144,137,-1,137,144,145,-1,137,145,138,-1,127,126,122,-1,122,126,146,-1,122,146,147,-1,148,131,149,-1,149,131,150,-1,151,152,118,-1,118,152,153,-1,118,153,133,-1,140,154,117,-1,117,154,155,-1,117,155,119,-1,147,156,122,-1,122,156,157,-1,122,157,121,-1,148,158,131,-1,131,158,159,-1,131,159,132,-1,138,160,136,-1,136,160,161,-1,136,161,162,-1,162,161,163,-1,162,163,164,-1,164,163,165,-1,116,166,117,-1,117,166,167,-1,117,167,139,-1,167,168,139,-1,139,168,169,-1,139,169,170,-1,170,169,171,-1,170,171,172,-1,173,174,175,-1,175,174,176,-1,175,176,163,-1,163,176,177,-1,163,177,165,-1,178,179,180,-1,172,171,181,-1,181,171,182,-1,181,182,183,-1,175,184,173,-1,173,184,185,-1,173,185,186,-1,186,185,180,-1,186,180,187,-1,187,180,179,-1,183,182,188,-1,188,182,189,-1,188,189,180,-1,180,189,190,-1,180,190,178,-1,191,192,193,-1,193,192,194,-1,193,194,195,-1,195,194,196,-1,195,196,197,-1,197,196,198,-1,197,198,199,-1,199,198,200,-1,199,200,201,-1,201,200,202,-1,201,202,203,-1,203,202,204,-1,203,204,205,-1,205,204,206,-1,205,206,207,-1,207,206,208,-1,207,208,209,-1,209,208,210,-1,209,210,211,-1,211,210,212,-1,211,212,213,-1,213,212,214,-1,213,214,215,-1,215,214,216,-1,215,216,217,-1,217,216,218,-1,217,218,219,-1,219,218,220,-1,219,220,221,-1,221,220,222,-1,221,222,223,-1,223,222,224,-1,223,224,225,-1,225,224,226,-1,225,226,227,-1,227,226,228,-1,227,228,229,-1,229,228,230,-1,229,230,231,-1,231,230,232,-1,231,232,233,-1,233,232,234,-1,233,234,235,-1,235,234,236,-1,235,236,237,-1,237,236,238,-1,237,238,191,-1,191,238,192,-1,216,145,218,-1,218,145,144,-1,218,144,220,-1,220,144,143,-1,220,143,222,-1,222,143,142,-1,222,142,224,-1,224,142,141,-1,224,141,226,-1,226,141,120,-1,226,120,228,-1,228,120,119,-1,228,119,230,-1,230,119,155,-1,230,155,232,-1,232,155,154,-1,232,154,234,-1,234,154,140,-1,234,140,236,-1,236,140,139,-1,236,139,238,-1,238,139,170,-1,238,170,192,-1,192,170,172,-1,192,172,194,-1,194,172,181,-1,194,181,196,-1,196,181,183,-1,196,183,198,-1,198,183,188,-1,198,188,200,-1,200,188,180,-1,200,180,202,-1,202,180,185,-1,202,185,204,-1,204,185,184,-1,204,184,206,-1,206,184,175,-1,206,175,208,-1,208,175,163,-1,208,163,210,-1,210,163,161,-1,210,161,212,-1,212,161,160,-1,212,160,214,-1,214,160,138,-1,214,138,216,-1,216,138,145,-1,239,217,240,-1,240,217,219,-1,240,219,241,-1,241,219,221,-1,241,221,242,-1,242,221,223,-1,242,223,243,-1,243,223,225,-1,243,225,244,-1,244,225,227,-1,244,227,245,-1,245,227,229,-1,245,229,246,-1,246,229,231,-1,246,231,247,-1,247,231,233,-1,247,233,248,-1,248,233,235,-1,248,235,249,-1,249,235,237,-1,249,237,250,-1,250,237,191,-1,250,191,251,-1,251,191,193,-1,251,193,252,-1,252,193,195,-1,252,195,253,-1,253,195,197,-1,253,197,254,-1,254,197,199,-1,254,199,255,-1,255,199,201,-1,255,201,256,-1,256,201,203,-1,256,203,257,-1,257,203,205,-1,257,205,258,-1,258,205,207,-1,258,207,259,-1,259,207,209,-1,259,209,260,-1,260,209,211,-1,260,211,261,-1,261,211,213,-1,261,213,262,-1,262,213,215,-1,262,215,239,-1,239,215,217,-1,263,264,57,-1,265,266,57,-1,72,267,268,-1,268,269,72,-1,72,269,270,-1,72,270,271,-1,272,273,58,-1,58,273,274,-1,58,274,57,-1,57,274,275,-1,57,275,265,-1,266,276,57,-1,57,276,277,-1,57,277,263,-1,63,65,278,-1,264,279,57,-1,57,279,280,-1,57,280,72,-1,72,280,281,-1,72,281,267,-1,65,67,278,-1,278,67,69,-1,278,69,282,-1,282,69,71,-1,282,71,283,-1,271,284,72,-1,72,284,285,-1,72,285,71,-1,71,285,286,-1,71,286,283,-1,272,58,278,-1,278,58,61,-1,278,61,63,-1,56,57,74,-1,74,57,72,-1,287,273,288,-1,288,273,272,-1,288,272,289,-1,289,272,278,-1,289,278,290,-1,290,278,282,-1,290,282,291,-1,291,282,283,-1,291,283,292,-1,292,283,286,-1,292,286,293,-1,293,286,285,-1,293,285,294,-1,294,285,284,-1,294,284,295,-1,295,284,271,-1,295,271,296,-1,296,271,270,-1,296,270,297,-1,297,270,269,-1,297,269,298,-1,298,269,268,-1,298,268,299,-1,299,268,267,-1,299,267,300,-1,300,267,281,-1,300,281,301,-1,301,281,280,-1,301,280,302,-1,302,280,279,-1,302,279,303,-1,303,279,264,-1,303,264,304,-1,304,264,263,-1,304,263,305,-1,305,263,277,-1,305,277,306,-1,306,277,276,-1,306,276,307,-1,307,276,266,-1,307,266,308,-1,308,266,265,-1,308,265,309,-1,309,265,275,-1,309,275,310,-1,310,275,274,-1,310,274,287,-1,287,274,273,-1,249,250,311,-1,311,250,251,-1,311,251,252,-1,246,247,311,-1,311,247,248,-1,311,248,249,-1,243,244,311,-1,311,244,245,-1,311,245,246,-1,240,241,311,-1,311,241,242,-1,311,242,243,-1,261,262,311,-1,311,262,239,-1,311,239,240,-1,258,259,311,-1,311,259,260,-1,311,260,261,-1,255,256,311,-1,311,256,257,-1,311,257,258,-1,252,253,311,-1,311,253,254,-1,311,254,255,-1,297,298,312,-1,312,298,299,-1,312,299,300,-1,294,295,312,-1,312,295,296,-1,312,296,297,-1,291,292,312,-1,312,292,293,-1,312,293,294,-1,288,289,312,-1,312,289,290,-1,312,290,291,-1,309,310,312,-1,312,310,287,-1,312,287,288,-1,306,307,312,-1,312,307,308,-1,312,308,309,-1,303,304,312,-1,312,304,305,-1,312,305,306,-1,300,301,312,-1,312,301,302,-1,312,302,303,-1,13,14,313,-1,13,313,314,-1,314,313,315,-1,314,315,316,-1,316,315,317,-1,316,317,318,-1,318,317,319,-1,318,319,320,-1,320,319,321,-1,320,321,322,-1,322,321,174,-1,322,174,173,-1,14,17,313,-1,313,17,323,-1,313,323,315,-1,315,323,324,-1,315,324,317,-1,317,324,325,-1,317,325,319,-1,319,325,326,-1,319,326,321,-1,321,326,327,-1,321,327,174,-1,174,327,176,-1,17,19,323,-1,323,19,328,-1,323,328,324,-1,324,328,329,-1,324,329,325,-1,325,329,330,-1,325,330,326,-1,326,330,331,-1,326,331,327,-1,327,331,332,-1,327,332,176,-1,176,332,177,-1,19,21,328,-1,328,21,333,-1,328,333,329,-1,329,333,334,-1,329,334,330,-1,330,334,335,-1,330,335,331,-1,331,335,336,-1,331,336,332,-1,332,336,337,-1,332,337,177,-1,177,337,165,-1,21,23,333,-1,333,23,338,-1,333,338,334,-1,334,338,339,-1,334,339,335,-1,335,339,340,-1,335,340,336,-1,336,340,341,-1,336,341,337,-1,337,341,342,-1,337,342,165,-1,165,342,164,-1,23,25,338,-1,338,25,343,-1,338,343,339,-1,339,343,344,-1,339,344,340,-1,340,344,345,-1,340,345,341,-1,341,345,346,-1,341,346,342,-1,342,346,347,-1,342,347,164,-1,164,347,162,-1,25,27,343,-1,343,27,348,-1,343,348,344,-1,344,348,349,-1,344,349,345,-1,345,349,350,-1,345,350,346,-1,346,350,351,-1,346,351,347,-1,347,351,352,-1,347,352,162,-1,162,352,136,-1,0,3,353,-1,353,3,354,-1,353,354,355,-1,355,354,356,-1,355,356,357,-1,357,356,358,-1,357,358,359,-1,359,358,360,-1,359,360,361,-1,361,360,362,-1,361,362,189,-1,189,362,190,-1,3,5,354,-1,354,5,363,-1,354,363,356,-1,356,363,364,-1,356,364,358,-1,358,364,365,-1,358,365,360,-1,360,365,366,-1,360,366,362,-1,362,366,367,-1,362,367,190,-1,190,367,178,-1,5,7,363,-1,363,7,368,-1,363,368,364,-1,364,368,369,-1,364,369,365,-1,365,369,370,-1,365,370,366,-1,366,370,371,-1,366,371,367,-1,367,371,372,-1,367,372,178,-1,178,372,179,-1,7,9,368,-1,368,9,373,-1,368,373,369,-1,369,373,374,-1,369,374,370,-1,370,374,375,-1,370,375,371,-1,371,375,376,-1,371,376,372,-1,372,376,377,-1,372,377,179,-1,179,377,187,-1,9,11,373,-1,373,11,378,-1,373,378,374,-1,374,378,379,-1,374,379,375,-1,375,379,380,-1,375,380,376,-1,376,380,381,-1,376,381,377,-1,377,381,382,-1,377,382,187,-1,187,382,186,-1,11,13,378,-1,378,13,314,-1,378,314,379,-1,379,314,316,-1,379,316,380,-1,380,316,318,-1,380,318,381,-1,381,318,320,-1,381,320,382,-1,382,320,322,-1,382,322,186,-1,186,322,173,-1,27,28,383,-1,27,383,348,-1,348,383,384,-1,348,384,349,-1,349,384,385,-1,349,385,350,-1,350,385,386,-1,350,386,351,-1,351,386,387,-1,351,387,352,-1,352,387,137,-1,352,137,136,-1,114,0,353,-1,114,353,388,-1,388,353,355,-1,388,355,389,-1,389,355,357,-1,389,357,390,-1,390,357,359,-1,390,359,391,-1,391,359,361,-1,391,361,392,-1,392,361,189,-1,392,189,182,-1,129,128,393,-1,393,128,394,-1,393,394,395,-1,395,394,396,-1,395,396,397,-1,397,396,398,-1,397,398,399,-1,399,398,400,-1,399,400,401,-1,401,400,402,-1,401,402,40,-1,40,402,38,-1,128,123,394,-1,394,123,403,-1,394,403,396,-1,396,403,404,-1,396,404,398,-1,398,404,405,-1,398,405,400,-1,400,405,406,-1,400,406,402,-1,402,406,407,-1,402,407,38,-1,38,407,36,-1,123,125,403,-1,403,125,408,-1,403,408,404,-1,404,408,409,-1,404,409,405,-1,405,409,410,-1,405,410,406,-1,406,410,411,-1,406,411,407,-1,407,411,412,-1,407,412,36,-1,36,412,34,-1,125,127,408,-1,408,127,413,-1,408,413,409,-1,409,413,414,-1,409,414,410,-1,410,414,415,-1,410,415,411,-1,411,415,416,-1,411,416,412,-1,412,416,417,-1,412,417,34,-1,34,417,32,-1,127,122,413,-1,413,122,418,-1,413,418,414,-1,414,418,419,-1,414,419,415,-1,415,419,420,-1,415,420,416,-1,416,420,421,-1,416,421,417,-1,417,421,422,-1,417,422,32,-1,32,422,30,-1,122,137,418,-1,418,137,387,-1,418,387,419,-1,419,387,386,-1,419,386,420,-1,420,386,385,-1,420,385,421,-1,421,385,384,-1,421,384,422,-1,422,384,383,-1,422,383,30,-1,30,383,28,-1,182,171,392,-1,392,171,423,-1,392,423,391,-1,391,423,424,-1,391,424,390,-1,390,424,425,-1,390,425,389,-1,389,425,426,-1,389,426,388,-1,388,426,427,-1,388,427,114,-1,114,427,112,-1,171,169,423,-1,423,169,428,-1,423,428,424,-1,424,428,429,-1,424,429,425,-1,425,429,430,-1,425,430,426,-1,426,430,431,-1,426,431,427,-1,427,431,432,-1,427,432,112,-1,112,432,110,-1,169,168,428,-1,428,168,433,-1,428,433,429,-1,429,433,434,-1,429,434,430,-1,430,434,435,-1,430,435,431,-1,431,435,436,-1,431,436,432,-1,432,436,437,-1,432,437,110,-1,110,437,108,-1,168,167,433,-1,433,167,438,-1,433,438,434,-1,434,438,439,-1,434,439,435,-1,435,439,440,-1,435,440,436,-1,436,440,441,-1,436,441,437,-1,437,441,442,-1,437,442,108,-1,108,442,106,-1,167,166,438,-1,438,166,443,-1,438,443,439,-1,439,443,444,-1,439,444,440,-1,440,444,445,-1,440,445,441,-1,441,445,446,-1,441,446,442,-1,442,446,447,-1,442,447,106,-1,106,447,104,-1,166,116,443,-1,443,116,448,-1,443,448,444,-1,444,448,449,-1,444,449,445,-1,445,449,450,-1,445,450,446,-1,446,450,451,-1,446,451,447,-1,447,451,452,-1,447,452,104,-1,104,452,102,-1,40,42,453,-1,40,453,401,-1,401,453,454,-1,401,454,399,-1,399,454,455,-1,399,455,397,-1,397,455,456,-1,397,456,395,-1,395,456,457,-1,395,457,393,-1,393,457,131,-1,393,131,129,-1,101,102,452,-1,101,452,458,-1,458,452,451,-1,458,451,459,-1,459,451,450,-1,459,450,460,-1,460,450,449,-1,460,449,461,-1,461,449,448,-1,461,448,462,-1,462,448,116,-1,462,116,135,-1,55,463,53,-1,53,463,464,-1,463,465,464,-1,464,465,466,-1,464,466,467,-1,466,468,467,-1,467,468,469,-1,467,469,470,-1,469,471,470,-1,470,471,472,-1,470,472,473,-1,42,45,453,-1,453,45,474,-1,453,474,454,-1,454,474,475,-1,454,475,455,-1,455,475,476,-1,455,476,456,-1,456,476,477,-1,456,477,457,-1,457,477,478,-1,457,478,131,-1,45,47,474,-1,474,47,479,-1,474,479,475,-1,475,479,480,-1,475,480,476,-1,476,480,481,-1,476,481,477,-1,477,481,482,-1,477,482,478,-1,478,482,483,-1,47,49,479,-1,479,49,484,-1,479,484,480,-1,480,484,485,-1,480,485,481,-1,481,485,486,-1,481,486,482,-1,482,486,487,-1,482,487,483,-1,483,487,488,-1,49,51,484,-1,484,51,489,-1,484,489,485,-1,485,489,490,-1,485,490,486,-1,486,490,491,-1,486,491,487,-1,487,491,492,-1,487,492,488,-1,488,492,493,-1,51,53,489,-1,489,53,464,-1,489,464,490,-1,490,464,467,-1,490,467,491,-1,491,467,470,-1,491,470,492,-1,492,470,473,-1,492,473,493,-1,493,473,494,-1,472,495,473,-1,473,495,496,-1,473,496,494,-1,494,496,497,-1,494,497,498,-1,131,478,150,-1,150,478,483,-1,150,483,149,-1,149,483,488,-1,149,488,148,-1,148,488,493,-1,148,493,158,-1,158,493,494,-1,158,494,159,-1,159,494,498,-1,159,498,132,-1,88,91,499,-1,499,91,500,-1,499,500,501,-1,501,500,502,-1,501,502,503,-1,503,502,504,-1,503,504,505,-1,505,504,506,-1,505,506,507,-1,507,506,508,-1,507,508,118,-1,118,508,151,-1,91,93,500,-1,500,93,509,-1,500,509,502,-1,502,509,510,-1,502,510,504,-1,504,510,511,-1,504,511,506,-1,506,511,512,-1,506,512,508,-1,508,512,513,-1,508,513,151,-1,151,513,152,-1,93,95,509,-1,509,95,514,-1,509,514,510,-1,510,514,515,-1,510,515,511,-1,511,515,516,-1,511,516,512,-1,512,516,517,-1,512,517,513,-1,513,517,518,-1,513,518,152,-1,152,518,153,-1,95,97,514,-1,514,97,519,-1,514,519,515,-1,515,519,520,-1,515,520,516,-1,516,520,521,-1,516,521,517,-1,517,521,522,-1,517,522,518,-1,518,522,523,-1,518,523,153,-1,153,523,133,-1,97,99,519,-1,519,99,524,-1,519,524,520,-1,520,524,525,-1,520,525,521,-1,521,525,526,-1,521,526,522,-1,522,526,527,-1,522,527,523,-1,523,527,528,-1,523,528,133,-1,133,528,134,-1,99,101,524,-1,524,101,458,-1,524,458,525,-1,525,458,459,-1,525,459,526,-1,526,459,460,-1,526,460,527,-1,527,460,461,-1,527,461,528,-1,528,461,462,-1,528,462,134,-1,134,462,135,-1,132,498,130,-1,130,498,529,-1,529,498,530,-1,530,498,497,-1,530,497,531,-1,531,497,496,-1,531,496,532,-1,532,496,495,-1,532,495,533,-1,533,495,472,-1,533,472,534,-1,534,472,471,-1,534,471,535,-1,535,471,469,-1,535,469,536,-1,536,469,468,-1,536,468,537,-1,537,468,466,-1,537,466,538,-1,538,466,465,-1,538,465,539,-1,465,463,539,-1,539,463,55,-1,539,55,56,-1,87,88,499,-1,87,499,540,-1,540,499,501,-1,540,501,541,-1,541,501,503,-1,541,503,542,-1,542,503,505,-1,542,505,543,-1,543,505,507,-1,543,507,544,-1,544,507,118,-1,544,118,117,-1,130,529,124,-1,124,529,545,-1,529,530,545,-1,545,530,531,-1,545,531,546,-1,531,532,546,-1,546,532,533,-1,546,533,547,-1,533,534,547,-1,547,534,535,-1,547,535,548,-1,548,535,536,-1,548,536,549,-1,549,536,537,-1,549,537,550,-1,550,537,538,-1,550,538,551,-1,551,538,539,-1,551,539,552,-1,552,539,56,-1,552,56,74,-1,75,77,553,-1,553,77,554,-1,553,554,555,-1,555,554,556,-1,555,556,557,-1,557,556,558,-1,557,558,559,-1,559,558,560,-1,559,560,561,-1,561,560,562,-1,561,562,126,-1,126,562,146,-1,77,79,554,-1,554,79,563,-1,554,563,556,-1,556,563,564,-1,556,564,558,-1,558,564,565,-1,558,565,560,-1,560,565,566,-1,560,566,562,-1,562,566,567,-1,562,567,146,-1,146,567,147,-1,79,81,563,-1,563,81,568,-1,563,568,564,-1,564,568,569,-1,564,569,565,-1,565,569,570,-1,565,570,566,-1,566,570,571,-1,566,571,567,-1,567,571,572,-1,567,572,147,-1,147,572,156,-1,81,83,568,-1,568,83,573,-1,568,573,569,-1,569,573,574,-1,569,574,570,-1,570,574,575,-1,570,575,571,-1,571,575,576,-1,571,576,572,-1,572,576,577,-1,572,577,156,-1,156,577,157,-1,83,85,573,-1,573,85,578,-1,573,578,574,-1,574,578,579,-1,574,579,575,-1,575,579,580,-1,575,580,576,-1,576,580,581,-1,576,581,577,-1,577,581,582,-1,577,582,157,-1,157,582,121,-1,85,87,578,-1,578,87,540,-1,578,540,579,-1,579,540,541,-1,579,541,580,-1,580,541,542,-1,580,542,581,-1,581,542,543,-1,581,543,582,-1,582,543,544,-1,582,544,121,-1,121,544,117,-1,74,75,552,-1,552,75,553,-1,552,553,551,-1,551,553,550,-1,550,553,555,-1,550,555,549,-1,549,555,548,-1,548,555,557,-1,548,557,547,-1,547,557,559,-1,547,559,546,-1,546,559,561,-1,546,561,545,-1,545,561,126,-1,545,126,124,-1,583,100,584,-1,584,100,98,-1,584,98,585,-1,585,98,96,-1,585,96,586,-1,586,96,94,-1,586,94,587,-1,587,94,92,-1,587,92,588,-1,588,92,90,-1,588,90,589,-1,589,90,89,-1,589,89,590,-1,590,89,86,-1,590,86,591,-1,591,86,84,-1,591,84,592,-1,592,84,82,-1,592,82,593,-1,593,82,80,-1,593,80,594,-1,594,80,78,-1,594,78,595,-1,595,78,76,-1,595,76,596,-1,596,76,73,-1,596,73,597,-1,597,73,70,-1,597,70,598,-1,598,70,68,-1,598,68,599,-1,599,68,66,-1,599,66,600,-1,600,66,64,-1,600,64,601,-1,601,64,62,-1,601,62,602,-1,602,62,60,-1,602,60,603,-1,603,60,59,-1,603,59,604,-1,604,59,54,-1,604,54,605,-1,605,54,52,-1,605,52,606,-1,606,52,50,-1,606,50,607,-1,607,50,48,-1,607,48,608,-1,608,48,46,-1,608,46,609,-1,609,46,44,-1,609,44,610,-1,610,44,43,-1,610,43,611,-1,611,43,41,-1,611,41,612,-1,612,41,39,-1,612,39,613,-1,613,39,37,-1,613,37,614,-1,614,37,35,-1,614,35,615,-1,615,35,33,-1,615,33,616,-1,616,33,31,-1,616,31,617,-1,617,31,29,-1,617,29,618,-1,618,29,26,-1,618,26,619,-1,619,26,24,-1,619,24,620,-1,620,24,22,-1,620,22,621,-1,621,22,20,-1,621,20,622,-1,622,20,18,-1,622,18,623,-1,623,18,16,-1,623,16,624,-1,624,16,15,-1,624,15,625,-1,625,15,12,-1,625,12,626,-1,626,12,10,-1,626,10,627,-1,627,10,8,-1,627,8,628,-1,628,8,6,-1,628,6,629,-1,629,6,4,-1,629,4,630,-1,630,4,2,-1,630,2,631,-1,631,2,1,-1,631,1,632,-1,632,1,115,-1,632,115,633,-1,633,115,113,-1,633,113,634,-1,634,113,111,-1,634,111,635,-1,635,111,109,-1,635,109,636,-1,636,109,107,-1,636,107,637,-1,637,107,105,-1,637,105,638,-1,638,105,103,-1,638,103,583,-1,583,103,100,-1,603,639,602,-1,602,639,640,-1,602,640,601,-1,601,640,641,-1,601,641,600,-1,600,641,642,-1,600,642,599,-1,599,642,643,-1,599,643,598,-1,598,643,644,-1,598,644,597,-1,597,644,645,-1,639,603,646,-1,646,603,604,-1,646,604,647,-1,610,648,609,-1,609,648,649,-1,609,649,608,-1,608,649,650,-1,608,650,607,-1,607,650,651,-1,607,651,606,-1,606,651,652,-1,606,652,605,-1,605,652,653,-1,605,653,604,-1,604,653,647,-1,648,610,654,-1,654,610,611,-1,654,611,655,-1,617,656,657,-1,617,657,616,-1,616,657,658,-1,616,658,615,-1,615,658,659,-1,615,659,614,-1,614,659,660,-1,614,660,613,-1,613,660,661,-1,613,661,612,-1,612,661,655,-1,612,655,611,-1,662,656,617,-1,663,664,618,-1,618,664,665,-1,618,665,617,-1,617,665,666,-1,617,666,662,-1,624,667,623,-1,623,667,668,-1,623,668,622,-1,622,668,669,-1,622,669,621,-1,621,669,670,-1,621,670,620,-1,620,670,671,-1,620,671,619,-1,619,671,672,-1,619,672,618,-1,618,672,663,-1,673,674,625,-1,625,674,675,-1,676,677,624,-1,624,677,678,-1,624,678,667,-1,675,679,625,-1,625,679,680,-1,625,680,624,-1,624,680,681,-1,624,681,676,-1,631,682,630,-1,630,682,683,-1,630,683,629,-1,629,683,684,-1,629,684,628,-1,628,684,685,-1,628,685,627,-1,627,685,686,-1,627,686,626,-1,626,686,687,-1,626,687,625,-1,625,687,673,-1,632,688,689,-1,632,689,631,-1,631,689,690,-1,631,690,682,-1,638,691,692,-1,638,692,637,-1,637,692,693,-1,637,693,636,-1,636,693,694,-1,636,694,635,-1,635,694,695,-1,635,695,634,-1,634,695,696,-1,634,696,633,-1,633,696,688,-1,633,688,632,-1,638,583,691,-1,691,583,697,-1,589,698,588,-1,588,698,699,-1,588,699,587,-1,587,699,700,-1,587,700,586,-1,586,700,701,-1,586,701,585,-1,585,701,702,-1,585,702,584,-1,584,702,703,-1,584,703,583,-1,583,703,697,-1,704,698,589,-1,590,705,706,-1,590,706,589,-1,589,706,707,-1,589,707,704,-1,596,708,595,-1,595,708,709,-1,595,709,594,-1,594,709,710,-1,594,710,593,-1,593,710,711,-1,593,711,592,-1,592,711,712,-1,592,712,591,-1,591,712,713,-1,591,713,590,-1,590,713,705,-1,645,714,597,-1,597,714,715,-1,716,708,596,-1,715,717,597,-1,597,717,718,-1,597,718,596,-1,596,718,719,-1,596,719,720,-1,720,721,596,-1,596,721,722,-1,596,722,716,-1,723,724,725,-1,725,724,726,-1,725,726,727,-1,727,726,728,-1,727,728,729,-1,730,731,732,-1,732,731,733,-1,734,735,736,-1,730,732,735,-1,735,732,737,-1,735,737,736,-1,738,739,731,-1,731,739,740,-1,731,740,741,-1,741,742,731,-1,731,742,743,-1,731,743,733,-1,734,736,744,-1,744,736,745,-1,744,745,746,-1,
        ]
    }
}
Shape{
    appearance Appearance {
        material  Material 	{
            diffuseColor 0.8313725490196079 0.8313725490196079 0.8196078431372549
            specularColor 0.6666666666666666 0.6666666666666666 0.6549019607843137
            ambientIntensity 0.83
            transparency 0.0
            shininess 0.5
        }
    }
    geometry IndexedFaceSet {
        ccw TRUE
        solid FALSE
        coord DEF co Coordinate {
            point [
                -0.0394 -4.9842 -1.1811, -0.0394 -4.9055 -1.1811, 0.0394 -4.9842 -1.1811, 0.0394 -4.9055 -1.1811, -3.5433 1.0 -1.1811, -3.5433 1.0787 -1.1811, -3.4646 1.0 -1.1811, -3.4646 1.0787 -1.1811
            ]
        }
        coordIndex [
            0,1,2,-1,2,1,3,-1,4,5,6,-1,6,5,7,-1,
        ]
    }
}
Shape{
    appearance Appearance {
        material  Material 	{
            diffuseColor 1.0 1.0 1.0
            specularColor 0.8784313725490196 0.8784313725490196 0.8784313725490196
            ambientIntensity 1.0
            transparency 0.0
            shininess 0.5
        }
    }
    geometry IndexedFaceSet {
        ccw TRUE
        solid FALSE
        coord DEF co Coordinate {
            point [
                -0.8886 0.2924 0.0827, -0.8886 0.2924 0.0787, -0.9474 0.4568 0.0827, -0.9474 0.4568 0.0787, -1.0203 0.2924 0.0827, -1.0203 0.2924 0.0787, -0.961 0.4568 0.0827, -0.961 0.4568 0.0787, -0.9537 0.4844 0.0827, -0.9537 0.4844 0.0787, -0.9576 0.4707 0.0787, -0.9576 0.4707 0.0827, -0.9512 0.4705 0.0787, -0.9512 0.4705 0.0827, -0.4873 0.4892 0.0827, -0.4873 0.4892 0.0787, -0.5453 0.4892 0.0827, -0.5453 0.4892 0.0787, -0.4873 0.1819 0.0827, -0.4873 0.1819 0.0787, -0.5432 0.1819 0.0827, -0.5432 0.1819 0.0787, -0.6985 0.3394 0.0827, -0.6985 0.3394 0.0787, -0.6912 0.2921 0.0787, -0.6912 0.2921 0.0827, -0.6826 0.2619 0.0787, -0.6826 0.2619 0.0827, -0.6723 0.2414 0.0787, -0.6723 0.2414 0.0827, -0.6595 0.2263 0.0787, -0.6595 0.2263 0.0827, -0.6388 0.2116 0.0787, -0.6388 0.2116 0.0827, -0.5984 0.1953 0.0787, -0.5984 0.1953 0.0827, -0.5913 0.4822 0.0787, -0.5913 0.4822 0.0827, -0.6206 0.4739 0.0787, -0.6206 0.4739 0.0827, -0.6406 0.4638 0.0787, -0.6406 0.4638 0.0827, -0.655 0.4517 0.0787, -0.655 0.4517 0.0827, -0.6694 0.4317 0.0787, -0.6694 0.4317 0.0827, -0.6853 0.3926 0.0787, -0.6853 0.3926 0.0827
            ]
        }
        coordIndex [
            0,1,2,-1,2,1,3,-1,4,5,0,-1,0,5,1,-1,6,7,4,-1,4,7,5,-1,8,9,10,-1,8,10,11,-1,11,10,7,-1,11,7,6,-1,2,3,12,-1,2,12,13,-1,13,12,9,-1,13,9,8,-1,14,15,16,-1,16,15,17,-1,18,19,14,-1,14,19,15,-1,20,21,18,-1,18,21,19,-1,22,23,24,-1,22,24,25,-1,25,24,26,-1,25,26,27,-1,27,26,28,-1,27,28,29,-1,29,28,30,-1,29,30,31,-1,31,30,32,-1,31,32,33,-1,33,32,34,-1,33,34,35,-1,35,34,21,-1,35,21,20,-1,16,17,36,-1,16,36,37,-1,37,36,38,-1,37,38,39,-1,39,38,40,-1,39,40,41,-1,41,40,42,-1,41,42,43,-1,43,42,44,-1,43,44,45,-1,45,44,46,-1,45,46,47,-1,47,46,23,-1,47,23,22,-1,
        ]
    }
}
Shape{
    appearance Appearance {
        material  Material 	{
            diffuseColor 0.8313725490196079 0.8313725490196079 0.8196078431372549
            specularColor 0.6666666666666666 0.6666666666666666 0.6549019607843137
            ambientIntensity 0.83
            transparency 0.0
            shininess 0.5
        }
    }
    geometry IndexedFaceSet {
        ccw TRUE
        solid FALSE
        coord DEF co Coordinate {
            point [
                0.1969 -5.1417 -1.0236, 0.0394 -4.9842 -1.1811, 0.1969 -4.748 -1.0236, 0.0394 -4.9055 -1.1811, -0.1969 -5.1417 -1.0236, -0.0394 -4.9842 -1.1811, -0.0394 -4.9055 -1.1811, -0.1969 -4.748 -1.0236, 2.1063 -3.8622 -1.1811, 2.1063 -4.0591 -1.1811, 1.9094 -3.8622 -1.1811, 1.9094 -4.0591 -1.1811, -1.9094 -3.8622 -1.1811, -1.9094 -4.0591 -1.1811, -2.1063 -3.8622 -1.1811, -2.1063 -4.0591 -1.1811, -3.3071 0.8425 -1.0236, -3.4646 1.0 -1.1811, -3.3071 1.2362 -1.0236, -3.4646 1.0787 -1.1811, -3.7008 0.8425 -1.0236, -3.5433 1.0 -1.1811, -3.5433 1.0787 -1.1811, -3.7008 1.2362 -1.0236, 3.7992 1.8661 -1.0236, 3.6417 1.8661 -1.1811, 3.7992 2.1811 -1.0236, 3.6417 2.1811 -1.1811, 3.2087 2.1811 -1.0236, 3.3661 2.1811 -1.1811, 3.2087 1.8661 -1.0236, 3.3661 1.8661 -1.1811, 3.7992 4.8583 -1.0236, 3.6417 4.8583 -1.1811, 3.7992 5.1732 -1.0236, 3.6417 5.1732 -1.1811, 3.2087 5.1732 -1.0236, 3.3661 5.1732 -1.1811, 3.2087 4.8583 -1.0236, 3.3661 4.8583 -1.1811
            ]
        }
        coordIndex [
            0,1,2,-1,2,1,3,-1,4,5,0,-1,0,5,1,-1,5,4,6,-1,6,4,7,-1,2,3,7,-1,7,3,6,-1,8,9,10,-1,10,9,11,-1,12,13,14,-1,14,13,15,-1,16,17,18,-1,18,17,19,-1,20,21,16,-1,16,21,17,-1,21,20,22,-1,22,20,23,-1,18,19,23,-1,23,19,22,-1,24,25,26,-1,26,25,27,-1,28,29,30,-1,30,29,31,-1,29,27,31,-1,31,27,25,-1,32,33,34,-1,34,33,35,-1,36,37,38,-1,38,37,39,-1,37,35,39,-1,39,35,33,-1,
        ]
    }
}
Shape{
    appearance Appearance {
        material  Material 	{
            diffuseColor 1.0 1.0 1.0
            specularColor 0.8784313725490196 0.8784313725490196 0.8784313725490196
            ambientIntensity 1.0
            transparency 0.0
            shininess 0.5
        }
    }
    geometry IndexedFaceSet {
        ccw TRUE
        solid FALSE
        coord DEF co Coordinate {
            point [
                -0.8886 0.2924 0.0827, -0.9474 0.4568 0.0827, -0.929 0.5324 0.0827, -0.7801 0.1387 0.0827, -0.8378 0.1387 0.0827, -0.8753 0.2492 0.0827, -0.9576 0.4707 0.0827, -0.9818 0.5324 0.0827, -0.9537 0.4844 0.0827, -0.9512 0.4705 0.0827, -1.0203 0.2924 0.0827, -1.038 0.2492 0.0827, -0.961 0.4568 0.0827, -1.1354 0.1387 0.0827, -1.0778 0.1387 0.0827, -0.6206 0.4739 0.0827, -0.6406 0.4638 0.0827, -0.6571 0.5021 0.0827, -0.689 0.4833 0.0827, -0.655 0.4517 0.0827, -0.7084 0.4641 0.0827, -0.6694 0.4317 0.0827, -0.724 0.4386 0.0827, -0.6853 0.3926 0.0827, -0.7378 0.4008 0.0827, -0.7513 0.3405 0.0827, -0.6985 0.3394 0.0827, -0.7453 0.317 0.0827, -0.6912 0.2921 0.0827, -0.7144 0.2285 0.0827, -0.6826 0.2619 0.0827, -0.6723 0.2414 0.0827, -0.6931 0.1962 0.0827, -0.6595 0.2263 0.0827, -0.6723 0.1771 0.0827, -0.6388 0.2116 0.0827, -0.6451 0.1622 0.0827, -0.5984 0.1953 0.0827, -0.5913 0.4822 0.0827, -0.5726 0.527 0.0827, -0.5453 0.4892 0.0827, -0.5456 0.5324 0.0827, -0.4873 0.4892 0.0827, -0.4345 0.5324 0.0827, -0.4873 0.1819 0.0827, -0.4345 0.1387 0.0827, -0.5432 0.1819 0.0827, -0.5415 0.1387 0.0827, -0.6051 0.1498 0.0827, -0.1464 0.1387 0.0827, -0.3576 0.1387 0.0827, -0.3576 0.1819 0.0827, -0.1992 0.1819 0.0827, -0.1992 0.3164 0.0827, -0.1464 0.5324 0.0827, -0.348 0.4892 0.0827, -0.348 0.5324 0.0827, -0.1992 0.4892 0.0827, -0.1992 0.3596 0.0827, -0.3384 0.3596 0.0827, -0.3384 0.3164 0.0827, -0.0696 0.4688 0.0827, -0.0696 0.5216 0.0827, -0.0251 0.4878 0.0827, -0.0241 0.534 0.0827, 0.0226 0.494 0.0827, 0.0231 0.5372 0.0827, 0.0422 0.4884 0.0827, 0.0856 0.5237 0.0827, 0.1068 0.4637 0.0827, 0.1613 0.2836 0.0827, 0.2031 0.233 0.0827, 0.1473 0.2422 0.0827, 0.1899 0.2078 0.0827, 0.1341 0.2211 0.0827, 0.1728 0.1886 0.0827, 0.1219 0.2091 0.0827, 0.1444 0.1692 0.0827, 0.1247 0.5098 0.0827, 0.1511 0.494 0.0827, 0.1305 0.4471 0.0827, 0.1711 0.4741 0.0827, 0.1444 0.431 0.0827, 0.1911 0.4409 0.0827, 0.155 0.4101 0.0827, -0.0696 0.1591 0.0827, -0.0696 0.2023 0.0827, -0.0169 0.1395 0.0827, -0.0209 0.1829 0.0827, 0.0388 0.1339 0.0827, 0.0315 0.1771 0.0827, 0.07 0.1421 0.0827, 0.0756 0.1874 0.0827, 0.1033 0.1977 0.0827, 0.1635 0.3796 0.0827, 0.2185 0.3506 0.0827, 0.1705 0.3314 0.0827, 0.2233 0.3282 0.0827, 0.2139 0.2698 0.0827, 0.4058 0.5324 0.0827, 0.4586 0.5324 0.0827, 0.4058 0.1819 0.0827, 0.4586 0.1387 0.0827, 0.2569 0.1819 0.0827, 0.2569 0.1387 0.0827
            ]
        }
        coordIndex [
            0,1,2,-1,3,4,5,-1,6,7,8,-1,8,7,2,-1,8,2,9,-1,9,2,1,-1,2,3,0,-1,0,3,5,-1,0,5,10,-1,10,5,11,-1,6,12,7,-1,7,12,10,-1,7,10,13,-1,13,10,11,-1,13,11,14,-1,15,16,17,-1,17,16,18,-1,18,16,19,-1,18,19,20,-1,20,19,21,-1,20,21,22,-1,22,21,23,-1,22,23,24,-1,24,23,25,-1,25,23,26,-1,25,26,27,-1,27,26,28,-1,27,28,29,-1,28,30,29,-1,29,30,31,-1,29,31,32,-1,32,31,33,-1,32,33,34,-1,34,33,35,-1,34,35,36,-1,36,35,37,-1,15,17,38,-1,38,17,39,-1,38,39,40,-1,40,39,41,-1,40,41,42,-1,42,41,43,-1,42,43,44,-1,44,43,45,-1,44,45,46,-1,46,45,47,-1,46,47,37,-1,37,47,48,-1,37,48,36,-1,49,50,51,-1,51,52,49,-1,49,52,53,-1,49,53,54,-1,55,56,57,-1,57,56,54,-1,57,54,58,-1,58,54,53,-1,58,53,59,-1,59,53,60,-1,61,62,63,-1,63,62,64,-1,63,64,65,-1,65,64,66,-1,65,66,67,-1,67,66,68,-1,67,68,69,-1,70,71,72,-1,72,71,73,-1,72,73,74,-1,74,73,75,-1,74,75,76,-1,76,75,77,-1,68,78,69,-1,69,78,79,-1,69,79,80,-1,80,79,81,-1,80,81,82,-1,82,81,83,-1,82,83,84,-1,85,86,87,-1,87,86,88,-1,87,88,89,-1,89,88,90,-1,89,90,91,-1,91,90,92,-1,91,92,77,-1,77,92,93,-1,77,93,76,-1,84,83,94,-1,94,83,95,-1,94,95,96,-1,96,95,97,-1,96,97,70,-1,70,97,98,-1,70,98,71,-1,99,100,101,-1,101,100,102,-1,101,102,103,-1,103,102,104,-1,
        ]
    }
}
Shape{
    appearance Appearance {
        material  Material 	{
            diffuseColor 0.8313725490196079 0.8313725490196079 0.8196078431372549
            specularColor 0.6666666666666666 0.6666666666666666 0.6549019607843137
            ambientIntensity 0.83
            transparency 0.0
            shininess 0.5
        }
    }
    geometry IndexedFaceSet {
        ccw TRUE
        solid FALSE
        coord DEF co Coordinate {
            point [
                0.1969 -4.748 -1.0236, 0.1969 -4.748 0.0787, 0.1969 -5.1417 -1.0236, 0.1969 -5.1417 0.0787, -0.1969 -5.1417 0.0787, -0.1969 -5.1417 -1.0236, -0.108 -5.1417 0.0787, -0.1969 -4.748 -1.0236, -0.1969 -4.748 0.0787, -0.108 -4.748 0.0787, 2.1063 -4.0591 -1.1811, 2.1063 -3.8622 -1.1811, 2.1063 -4.0591 0.0787, 2.1063 -3.8622 0.0787, 1.9094 -4.0591 -1.1811, 1.9094 -4.0591 0.0787, 1.9094 -3.8622 -1.1811, 1.9094 -3.8622 0.0787, -1.9094 -4.0591 -1.1811, -1.9094 -3.8622 -1.1811, -1.9094 -4.0591 0.0787, -1.9094 -3.8622 0.0787, -2.1063 -4.0591 -1.1811, -2.1063 -4.0591 0.0787, -2.1063 -3.8622 -1.1811, -2.1063 -3.8622 0.0787, -3.3071 1.2362 -1.0236, -3.3071 1.2362 0.0787, -3.3071 0.8425 -1.0236, -3.3071 0.8425 0.0787, -3.7008 0.8425 -1.0236, -3.7008 0.8425 0.0787, -3.7008 1.2362 -1.0236, -3.7008 1.2362 0.0787, 3.7992 2.1811 -1.0236, 3.7992 2.1811 0.0787, 3.7992 1.8661 -1.0236, 3.7992 1.8661 0.0787, 3.3661 1.8661 -1.1811, 3.6417 1.8661 -1.1811, 3.2087 1.8661 -1.0236, 3.2087 1.8661 0.0787, 3.2087 2.1811 -1.0236, 3.2087 2.1811 0.0787, 3.3661 2.1811 -1.1811, 3.6417 2.1811 -1.1811, 3.7992 5.1732 -1.0236, 3.7992 5.1732 0.0787, 3.7992 4.8583 -1.0236, 3.7992 4.8583 0.0787, 3.3661 4.8583 -1.1811, 3.6417 4.8583 -1.1811, 3.2087 4.8583 -1.0236, 3.2087 4.8583 0.0787, 3.2087 5.1732 -1.0236, 3.2087 5.1732 0.0787, 3.3661 5.1732 -1.1811, 3.6417 5.1732 -1.1811
            ]
        }
        coordIndex [
            0,1,2,-1,2,1,3,-1,4,5,6,-1,6,5,2,-1,6,2,3,-1,5,4,7,-1,7,4,8,-1,1,0,9,-1,9,0,7,-1,9,7,8,-1,10,11,12,-1,12,11,13,-1,14,10,15,-1,15,10,12,-1,16,14,17,-1,17,14,15,-1,11,16,13,-1,13,16,17,-1,18,19,20,-1,20,19,21,-1,22,18,23,-1,23,18,20,-1,24,22,25,-1,25,22,23,-1,19,24,21,-1,21,24,25,-1,26,27,28,-1,28,27,29,-1,28,29,30,-1,30,29,31,-1,30,31,32,-1,32,31,33,-1,32,33,26,-1,26,33,27,-1,34,35,36,-1,36,35,37,-1,38,39,40,-1,40,39,36,-1,40,36,41,-1,41,36,37,-1,40,41,42,-1,42,41,43,-1,43,35,42,-1,42,35,34,-1,42,34,44,-1,44,34,45,-1,46,47,48,-1,48,47,49,-1,50,51,52,-1,52,51,48,-1,52,48,53,-1,53,48,49,-1,52,53,54,-1,54,53,55,-1,55,47,54,-1,54,47,46,-1,54,46,56,-1,56,46,57,-1,
        ]
    }
}
Shape{
    appearance Appearance {
        material  Material 	{
            diffuseColor 1.0 1.0 1.0
            specularColor 0.8784313725490196 0.8784313725490196 0.8784313725490196
            ambientIntensity 1.0
            transparency 0.0
            shininess 0.5
        }
    }
    geometry IndexedFaceSet {
        ccw TRUE
        solid FALSE
        coord DEF co Coordinate {
            point [
                -1.038 0.2492 0.0787, -1.038 0.2492 0.0827, -0.8753 0.2492 0.0787, -0.8753 0.2492 0.0827, -1.0778 0.1387 0.0787, -1.0778 0.1387 0.0827, -1.1354 0.1387 0.0787, -1.1354 0.1387 0.0827, -0.9818 0.5324 0.0787, -0.9818 0.5324 0.0827, -0.929 0.5324 0.0787, -0.929 0.5324 0.0827, -0.7801 0.1387 0.0787, -0.7801 0.1387 0.0827, -0.8378 0.1387 0.0787, -0.8378 0.1387 0.0827, -0.5415 0.1387 0.0787, -0.5415 0.1387 0.0827, -0.4345 0.1387 0.0787, -0.4345 0.1387 0.0827, -0.6051 0.1498 0.0787, -0.6051 0.1498 0.0827, -0.6451 0.1622 0.0787, -0.6451 0.1622 0.0827, -0.6723 0.1771 0.0787, -0.6723 0.1771 0.0827, -0.6931 0.1962 0.0787, -0.6931 0.1962 0.0827, -0.7144 0.2285 0.0787, -0.7144 0.2285 0.0827, -0.7453 0.317 0.0787, -0.7453 0.317 0.0827, -0.7513 0.3405 0.0787, -0.7513 0.3405 0.0827, -0.7378 0.4008 0.0787, -0.7378 0.4008 0.0827, -0.724 0.4386 0.0787, -0.724 0.4386 0.0827, -0.7084 0.4641 0.0787, -0.7084 0.4641 0.0827, -0.689 0.4833 0.0787, -0.689 0.4833 0.0827, -0.6571 0.5021 0.0787, -0.6571 0.5021 0.0827, -0.5726 0.527 0.0787, -0.5726 0.527 0.0827, -0.5456 0.5324 0.0787, -0.5456 0.5324 0.0827, -0.4345 0.5324 0.0787, -0.4345 0.5324 0.0827, -0.1992 0.3596 0.0787, -0.1992 0.3596 0.0827, -0.3384 0.3596 0.0787, -0.3384 0.3596 0.0827, -0.1992 0.4892 0.0787, -0.1992 0.4892 0.0827, -0.348 0.4892 0.0787, -0.348 0.4892 0.0827, -0.348 0.5324 0.0787, -0.348 0.5324 0.0827, -0.1464 0.5324 0.0787, -0.1464 0.5324 0.0827, -0.1464 0.1387 0.0787, -0.1464 0.1387 0.0827, -0.3576 0.1387 0.0787, -0.3576 0.1387 0.0827, -0.3576 0.1819 0.0787, -0.3576 0.1819 0.0827, -0.1992 0.1819 0.0787, -0.1992 0.1819 0.0827, -0.1992 0.3164 0.0787, -0.1992 0.3164 0.0827, -0.3384 0.3164 0.0787, -0.3384 0.3164 0.0827, -0.0696 0.5216 0.0787, -0.0696 0.5216 0.0827, -0.0696 0.4688 0.0787, -0.0696 0.4688 0.0827, 0.0231 0.5372 0.0787, 0.0231 0.5372 0.0827, -0.0124 0.5348 0.0787, -0.0241 0.534 0.0827, -0.0241 0.534 0.0787, 0.2233 0.3282 0.0787, 0.2233 0.3282 0.0827, 0.2185 0.3506 0.0827, 0.0342 0.5348 0.0787, 0.0856 0.5237 0.0827, 0.0856 0.5237 0.0787, 0.1247 0.5098 0.0787, 0.1247 0.5098 0.0827, 0.1511 0.494 0.0787, 0.1511 0.494 0.0827, 0.1711 0.4741 0.0787, 0.1711 0.4741 0.0827, 0.1911 0.4409 0.0787, 0.1911 0.4409 0.0827, 0.2101 0.3782 0.0787, 0.2185 0.3506 0.0787, 0.2139 0.2698 0.0787, 0.2139 0.2698 0.0827, 0.2101 0.2567 0.0787, 0.2031 0.233 0.0827, 0.2031 0.233 0.0787, 0.1899 0.2078 0.0787, 0.1899 0.2078 0.0827, 0.1728 0.1886 0.0787, 0.1728 0.1886 0.0827, 0.1444 0.1692 0.0787, 0.1444 0.1692 0.0827, 0.07 0.1421 0.0787, 0.07 0.1421 0.0827, 0.0388 0.1339 0.0827, 0.048 0.1363 0.0787, 0.0388 0.1339 0.0787, -0.0696 0.1591 0.0787, -0.0696 0.1591 0.0827, -0.0169 0.1395 0.0827, 0.0148 0.1363 0.0787, -0.0169 0.1395 0.0787, -0.0696 0.2023 0.0787, -0.0696 0.2023 0.0827, -0.0209 0.1829 0.0787, -0.0209 0.1829 0.0827, 0.0315 0.1771 0.0787, 0.0315 0.1771 0.0827, 0.0756 0.1874 0.0787, 0.0756 0.1874 0.0827, 0.1033 0.1977 0.0787, 0.1033 0.1977 0.0827, 0.1219 0.2091 0.0787, 0.1219 0.2091 0.0827, 0.1341 0.2211 0.0787, 0.1341 0.2211 0.0827, 0.1473 0.2422 0.0787, 0.1473 0.2422 0.0827, 0.1613 0.2836 0.0787, 0.1613 0.2836 0.0827, 0.1705 0.3314 0.0787, 0.1705 0.3314 0.0827, 0.1635 0.3796 0.0787, 0.1635 0.3796 0.0827, 0.155 0.4101 0.0787, 0.155 0.4101 0.0827, 0.1444 0.431 0.0787, 0.1444 0.431 0.0827, 0.1305 0.4471 0.0787, 0.1305 0.4471 0.0827, 0.1068 0.4637 0.0787, 0.1068 0.4637 0.0827, 0.0422 0.4884 0.0787, 0.0422 0.4884 0.0827, 0.0226 0.494 0.0787, 0.0226 0.494 0.0827, -0.0251 0.4878 0.0787, -0.0251 0.4878 0.0827, 0.2569 0.1387 0.0787, 0.2569 0.1387 0.0827, 0.4586 0.1387 0.0787, 0.4586 0.1387 0.0827, 0.2569 0.1819 0.0787, 0.2569 0.1819 0.0827, 0.4058 0.1819 0.0787, 0.4058 0.1819 0.0827, 0.4058 0.5324 0.0787, 0.4058 0.5324 0.0827, 0.4586 0.5324 0.0787, 0.4586 0.5324 0.0827
            ]
        }
        coordIndex [
            0,1,2,-1,2,1,3,-1,4,5,0,-1,0,5,1,-1,6,7,4,-1,4,7,5,-1,8,9,6,-1,6,9,7,-1,10,11,8,-1,8,11,9,-1,12,13,10,-1,10,13,11,-1,12,14,13,-1,13,14,15,-1,2,3,14,-1,14,3,15,-1,16,17,18,-1,18,17,19,-1,17,16,20,-1,17,20,21,-1,21,20,22,-1,21,22,23,-1,23,22,24,-1,23,24,25,-1,25,24,26,-1,25,26,27,-1,27,26,28,-1,27,28,29,-1,29,28,30,-1,29,30,31,-1,31,30,32,-1,31,32,33,-1,33,32,34,-1,33,34,35,-1,35,34,36,-1,35,36,37,-1,37,36,38,-1,37,38,39,-1,39,38,40,-1,39,40,41,-1,41,40,42,-1,41,42,43,-1,43,42,44,-1,43,44,45,-1,45,44,46,-1,45,46,47,-1,46,48,47,-1,47,48,49,-1,18,19,48,-1,48,19,49,-1,50,51,52,-1,52,51,53,-1,54,55,50,-1,50,55,51,-1,56,57,54,-1,54,57,55,-1,58,59,56,-1,56,59,57,-1,60,61,58,-1,58,61,59,-1,62,63,60,-1,60,63,61,-1,64,65,62,-1,62,65,63,-1,66,67,64,-1,64,67,65,-1,68,69,66,-1,66,69,67,-1,70,71,68,-1,68,71,69,-1,70,72,71,-1,71,72,73,-1,52,53,72,-1,72,53,73,-1,74,75,76,-1,76,75,77,-1,78,79,80,-1,80,79,81,-1,80,81,82,-1,82,81,75,-1,82,75,74,-1,83,84,85,-1,79,78,86,-1,79,86,87,-1,86,88,87,-1,87,88,89,-1,87,89,90,-1,90,89,91,-1,90,91,92,-1,92,91,93,-1,92,93,94,-1,94,93,95,-1,94,95,96,-1,96,95,97,-1,96,97,85,-1,85,97,98,-1,85,98,83,-1,84,83,99,-1,84,99,100,-1,100,99,101,-1,100,101,102,-1,101,103,102,-1,102,103,104,-1,102,104,105,-1,105,104,106,-1,105,106,107,-1,107,106,108,-1,107,108,109,-1,109,108,110,-1,109,110,111,-1,111,110,112,-1,112,110,113,-1,112,113,114,-1,115,116,117,-1,112,114,118,-1,112,118,117,-1,117,118,119,-1,117,119,115,-1,120,121,115,-1,115,121,116,-1,121,120,122,-1,121,122,123,-1,123,122,124,-1,123,124,125,-1,125,124,126,-1,125,126,127,-1,127,126,128,-1,127,128,129,-1,129,128,130,-1,129,130,131,-1,131,130,132,-1,131,132,133,-1,133,132,134,-1,133,134,135,-1,135,134,136,-1,135,136,137,-1,137,136,138,-1,137,138,139,-1,139,138,140,-1,139,140,141,-1,141,140,142,-1,141,142,143,-1,143,142,144,-1,143,144,145,-1,145,144,146,-1,145,146,147,-1,147,146,148,-1,147,148,149,-1,149,148,150,-1,149,150,151,-1,151,150,152,-1,151,152,153,-1,153,152,154,-1,153,154,155,-1,155,154,76,-1,155,76,77,-1,156,157,158,-1,158,157,159,-1,160,161,156,-1,156,161,157,-1,162,163,160,-1,160,163,161,-1,164,165,162,-1,162,165,163,-1,164,166,165,-1,165,166,167,-1,158,159,166,-1,166,159,167,-1,
        ]
    }
}
Shape{
    appearance Appearance {
        material  Material 	{
            diffuseColor 0.20784313725490197 0.20784313725490197 0.20784313725490197
            specularColor 0.01568627450980392 0.01568627450980392 0.01568627450980392
            ambientIntensity 0.298
            transparency 0.0
            shininess 0.5
        }
    }
    geometry IndexedFaceSet {
        ccw TRUE
        solid FALSE
        coord DEF co Coordinate {
            point [
                2.1063 -3.8622 0.0787, 1.9094 -3.8622 0.0787, 1.184 0.1363 0.0787, -0.3384 0.3164 0.0787, -0.1992 0.3164 0.0787, -0.1992 0.1819 0.0787, -0.7657 1.5512 0.0787, -0.7657 6.0 0.0787, -0.396 6.0 0.0787, -5.0787 6.0 0.0787, -2.7067 6.0 0.0787, -2.7067 1.5512 0.0787, 0.2101 -4.4035 0.0787, 0.1969 -4.748 0.0787, -0.108 -4.4035 0.0787, -0.108 -4.748 0.0787, -0.396 -4.4035 0.0787, -0.1969 -4.748 0.0787, -0.1969 -5.1417 0.0787, -0.108 0.5348 0.0787, -0.0124 0.5348 0.0787, -0.0241 0.534 0.0787, -0.0251 0.4878 0.0787, 0.0226 0.494 0.0787, 0.0422 0.4884 0.0787, -0.0696 0.5216 0.0787, -0.0696 0.4688 0.0787, -0.108 0.1363 0.0787, -0.0696 0.2023 0.0787, -0.0696 0.1591 0.0787, -0.0169 0.1395 0.0787, 0.0148 0.1363 0.0787, -0.0209 0.1829 0.0787, 0.0315 0.1771 0.0787, 0.1305 0.4471 0.0787, 0.1444 0.431 0.0787, 0.0756 0.1874 0.0787, 0.155 0.4101 0.0787, 0.1635 0.3796 0.0787, 0.1705 0.3314 0.0787, 0.1613 0.2836 0.0787, 0.1033 0.1977 0.0787, 0.1068 0.4637 0.0787, 0.1473 0.2422 0.0787, 0.1341 0.2211 0.0787, 0.1219 0.2091 0.0787, 0.1711 0.4741 0.0787, 0.1511 0.494 0.0787, 0.2101 0.5348 0.0787, 0.1247 0.5098 0.0787, 0.0856 0.5237 0.0787, 0.0342 0.5348 0.0787, 0.2101 1.5512 0.0787, 0.4586 0.5324 0.0787, 0.4058 0.5324 0.0787, 0.2569 0.1819 0.0787, 0.2569 0.1387 0.0787, 0.2101 0.1363 0.0787, 0.4586 0.1387 0.0787, 1.184 0.5348 0.0787, 0.2101 0.2567 0.0787, 0.2139 0.2698 0.0787, 0.4058 0.1819 0.0787, 0.2233 0.3282 0.0787, 0.2185 0.3506 0.0787, 0.2101 0.3782 0.0787, 0.1911 0.4409 0.0787, 0.07 0.1421 0.0787, 0.1444 0.1692 0.0787, 0.1728 0.1886 0.0787, 0.1899 0.2078 0.0787, 0.2031 0.233 0.0787, 0.048 0.1363 0.0787, 0.0388 0.1339 0.0787, -5.181 5.9409 0.0787, -5.1623 5.9654 0.0787, -5.1928 5.9125 0.0787, -5.1378 5.9842 0.0787, -5.1969 5.8819 0.0787, -4.4169 -0.4267 0.0787, -4.4882 -0.4173 0.0787, -5.1969 0.1363 0.0787, -4.222 -0.6216 0.0787, -4.2495 -0.5551 0.0787, -2.7067 0.1363 0.0787, -4.2933 -0.498 0.0787, -4.3504 -0.4542 0.0787, -5.1093 -0.4133 0.0787, -5.1378 -0.4015 0.0787, -5.1969 -0.2992 0.0787, -5.0787 -0.4173 0.0787, -5.1623 -0.3827 0.0787, -5.181 -0.3583 0.0787, -5.1928 -0.3298 0.0787, -4.2086 -6.3534 0.0787, -4.2126 -6.3228 0.0787, -4.0945 -6.4409 0.0787, -4.2126 -5.7913 0.0787, -2.7067 -6.4409 0.0787, -4.1251 -6.4369 0.0787, -4.1535 -6.4251 0.0787, -4.178 -6.4063 0.0787, -4.1968 -6.3819 0.0787, 3.3661 -6.4251 0.0787, 3.4212 -6.3534 0.0787, 3.3906 -6.4063 0.0787, 3.4094 -6.3819 0.0787, 3.3377 -6.4369 0.0787, 3.3071 -6.4409 0.0787, 3.4252 -6.3228 0.0787, 3.4252 -5.7913 0.0787, 2.6575 -5.7913 0.0787, 3.4252 -4.4035 0.0787, 2.6575 1.5512 0.0787, 3.563 1.1599 0.0787, 3.5059 1.1161 0.0787, 4.6555 1.1969 0.0787, 3.7008 1.1969 0.0787, 3.6295 1.1875 0.0787, 3.4621 1.0591 0.0787, 3.4346 0.9926 0.0787, 2.6575 0.5348 0.0787, 2.6575 -4.4035 0.0787, 3.4252 0.1363 0.0787, 2.6575 0.1363 0.0787, 3.4252 0.5348 0.0787, 3.4252 0.9213 0.0787, 4.6555 1.5512 0.0787, 5.5118 1.5512 0.0787, 5.5118 1.315 0.0787, 5.5078 1.2844 0.0787, 5.496 1.2559 0.0787, 5.4772 1.2314 0.0787, 5.4528 1.2127 0.0787, 5.4243 1.2009 0.0787, 5.3937 1.1969 0.0787, 5.4772 5.9654 0.0787, 5.496 5.9409 0.0787, 5.4528 5.9842 0.0787, 5.5078 5.9125 0.0787, 5.5118 5.8819 0.0787, -1.5224 6.0 0.0787, -1.5224 1.5512 0.0787, -1.5224 0.5348 0.0787, -0.108 6.0 0.0787, 0.2101 6.0 0.0787, -0.108 1.5512 0.0787, 3.2087 2.1811 0.0787, 3.2087 1.8661 0.0787, 3.7992 1.8661 0.0787, 3.7992 2.1811 0.0787, 4.6555 6.0 0.0787, 5.3937 6.0 0.0787, 5.4243 5.996 0.0787, 2.6575 6.0 0.0787, 3.2087 4.8583 0.0787, 3.7992 4.8583 0.0787, 3.7992 5.1732 0.0787, 3.2087 5.1732 0.0787, -5.1969 0.5348 0.0787, -5.1969 1.5512 0.0787, -3.7008 1.2362 0.0787, -5.1093 5.996 0.0787, -3.3071 1.2362 0.0787, -3.3071 0.8425 0.0787, -2.7067 0.5348 0.0787, -3.7008 0.8425 0.0787, 1.184 6.0 0.0787, 1.184 1.5512 0.0787, -1.5224 0.1363 0.0787, -1.0778 0.1387 0.0787, -0.7657 0.1363 0.0787, -1.1354 0.1387 0.0787, -0.9818 0.5324 0.0787, -0.7657 0.5348 0.0787, -0.396 1.5512 0.0787, -1.038 0.2492 0.0787, -0.8753 0.2492 0.0787, -0.8378 0.1387 0.0787, -0.7801 0.1387 0.0787, -0.929 0.5324 0.0787, -0.5726 0.527 0.0787, -0.6571 0.5021 0.0787, -0.7144 0.2285 0.0787, -0.6931 0.1962 0.0787, -0.6723 0.1771 0.0787, -0.6451 0.1622 0.0787, -0.396 0.5348 0.0787, -0.4345 0.5324 0.0787, -0.5456 0.5324 0.0787, -0.689 0.4833 0.0787, -0.7084 0.4641 0.0787, -0.724 0.4386 0.0787, -0.4345 0.1387 0.0787, -0.396 0.1363 0.0787, -0.5415 0.1387 0.0787, -0.6051 0.1498 0.0787, -0.7378 0.4008 0.0787, -0.7513 0.3405 0.0787, -0.7453 0.317 0.0787, -0.3576 0.1819 0.0787, -0.3576 0.1387 0.0787, -0.1464 0.1387 0.0787, -0.1464 0.5324 0.0787, -0.348 0.5324 0.0787, 0.0231 0.5372 0.0787, -0.348 0.4892 0.0787, -0.1992 0.4892 0.0787, -0.1992 0.3596 0.0787, -0.3384 0.3596 0.0787, -0.7657 -4.4035 0.0787, -1.5224 -4.4035 0.0787, -1.9094 -3.8622 0.0787, -2.1063 -3.8622 0.0787, -2.7067 -4.4035 0.0787, -2.1063 -4.0591 0.0787, -1.9094 -4.0591 0.0787, 1.184 -4.4035 0.0787, 1.9094 -4.0591 0.0787, 2.1063 -4.0591 0.0787, 0.1969 -5.1417 0.0787, 0.2101 -5.7913 0.0787, -0.108 -5.1417 0.0787, -0.108 -5.7913 0.0787, -0.396 -5.7913 0.0787, -0.7657 -5.7913 0.0787, -1.5224 -5.7913 0.0787, -2.7067 -5.7913 0.0787, 1.184 -5.7913 0.0787, 2.6575 -6.4409 0.0787, 1.184 -6.4409 0.0787, 0.2101 -6.4409 0.0787, -0.108 -6.4409 0.0787, -0.396 -6.4409 0.0787, -0.7657 -6.4409 0.0787, -1.5224 -6.4409 0.0787, -4.2126 -4.4035 0.0787, -4.2126 -0.6929 0.0787
            ]
        }
        coordIndex [
            0,1,2,-1,3,4,5,-1,6,7,8,-1,9,10,11,-1,12,13,14,-1,14,13,15,-1,14,15,16,-1,16,15,17,-1,16,17,18,-1,19,20,21,-1,22,23,24,-1,21,25,19,-1,19,25,26,-1,19,26,27,-1,27,26,28,-1,28,29,27,-1,27,29,30,-1,27,30,31,-1,26,22,28,-1,28,22,24,-1,28,24,32,-1,32,24,33,-1,34,35,36,-1,36,35,37,-1,36,37,38,-1,38,39,36,-1,36,39,40,-1,36,40,41,-1,33,24,36,-1,36,24,42,-1,36,42,34,-1,43,44,40,-1,40,44,45,-1,40,45,41,-1,46,47,48,-1,48,47,49,-1,49,50,48,-1,48,50,51,-1,48,51,52,-1,53,54,48,-1,55,56,57,-1,58,59,2,-1,60,61,62,-1,62,61,63,-1,62,63,54,-1,63,64,54,-1,54,64,65,-1,54,65,48,-1,48,65,66,-1,48,66,46,-1,67,68,57,-1,57,68,69,-1,57,69,70,-1,62,55,60,-1,60,55,57,-1,60,57,71,-1,71,57,70,-1,67,57,72,-1,72,57,12,-1,72,12,73,-1,74,75,76,-1,76,75,77,-1,76,77,78,-1,79,80,81,-1,82,83,84,-1,84,83,85,-1,84,85,86,-1,87,88,89,-1,81,80,89,-1,89,80,90,-1,89,90,87,-1,88,91,89,-1,89,91,92,-1,89,92,93,-1,94,95,96,-1,96,95,97,-1,96,97,98,-1,99,100,101,-1,99,101,96,-1,96,101,102,-1,96,102,94,-1,103,104,105,-1,105,104,106,-1,103,107,104,-1,104,107,108,-1,104,108,109,-1,109,108,110,-1,110,108,111,-1,110,111,112,-1,113,114,115,-1,116,117,113,-1,113,117,118,-1,113,118,114,-1,115,119,113,-1,113,119,120,-1,113,120,121,-1,112,122,123,-1,123,122,124,-1,123,124,125,-1,125,124,121,-1,125,121,126,-1,126,121,120,-1,127,128,116,-1,116,128,129,-1,130,131,132,-1,132,133,130,-1,130,133,134,-1,130,134,129,-1,129,134,135,-1,129,135,116,-1,136,137,138,-1,138,137,139,-1,138,139,140,-1,141,7,142,-1,142,7,6,-1,142,6,143,-1,144,145,146,-1,146,145,52,-1,147,148,113,-1,116,113,127,-1,127,113,148,-1,127,148,149,-1,149,150,127,-1,127,150,151,-1,127,151,128,-1,128,151,152,-1,128,152,140,-1,140,152,153,-1,140,153,138,-1,113,154,147,-1,147,154,155,-1,147,155,150,-1,150,155,156,-1,150,156,151,-1,151,156,157,-1,151,157,154,-1,154,157,158,-1,154,158,155,-1,159,160,161,-1,77,162,78,-1,78,162,9,-1,78,9,160,-1,160,9,11,-1,160,11,161,-1,161,11,163,-1,163,11,164,-1,164,11,165,-1,164,165,166,-1,145,167,52,-1,52,167,168,-1,52,168,48,-1,48,168,59,-1,48,59,53,-1,53,59,58,-1,161,166,159,-1,159,166,165,-1,159,165,81,-1,81,165,84,-1,81,84,79,-1,79,84,86,-1,10,141,11,-1,11,141,142,-1,11,142,165,-1,165,142,143,-1,165,143,84,-1,84,143,169,-1,170,171,172,-1,172,171,169,-1,172,169,173,-1,173,169,143,-1,173,143,174,-1,174,143,6,-1,174,6,175,-1,175,6,8,-1,175,8,144,-1,176,177,170,-1,170,177,178,-1,170,178,171,-1,171,178,179,-1,171,179,174,-1,174,179,180,-1,174,180,173,-1,181,182,174,-1,183,184,171,-1,171,184,185,-1,171,185,186,-1,187,188,189,-1,144,146,175,-1,175,146,187,-1,175,187,174,-1,174,187,189,-1,174,189,181,-1,182,190,174,-1,174,190,191,-1,174,191,192,-1,193,194,195,-1,195,194,171,-1,195,171,196,-1,196,171,186,-1,192,197,174,-1,174,197,198,-1,174,198,171,-1,171,198,199,-1,171,199,183,-1,200,194,187,-1,187,194,193,-1,187,193,188,-1,200,201,194,-1,194,201,202,-1,194,202,27,-1,27,202,19,-1,19,202,203,-1,19,203,204,-1,51,205,52,-1,52,205,20,-1,52,20,146,-1,146,20,19,-1,146,19,187,-1,187,19,204,-1,187,204,206,-1,207,208,206,-1,206,208,209,-1,206,209,187,-1,187,209,3,-1,187,3,200,-1,200,3,5,-1,73,12,31,-1,31,12,14,-1,31,14,27,-1,27,14,16,-1,27,16,194,-1,194,16,210,-1,194,210,171,-1,171,210,211,-1,171,211,169,-1,169,211,212,-1,169,212,84,-1,84,212,213,-1,84,213,214,-1,214,213,215,-1,214,215,211,-1,211,215,216,-1,211,216,212,-1,56,58,57,-1,57,58,2,-1,57,2,12,-1,12,2,217,-1,2,1,217,-1,217,1,218,-1,217,218,122,-1,218,219,122,-1,122,219,0,-1,122,0,124,-1,124,0,2,-1,124,2,121,-1,121,2,59,-1,121,59,113,-1,113,59,168,-1,113,168,154,-1,154,168,167,-1,220,221,222,-1,222,221,223,-1,222,223,18,-1,18,223,224,-1,18,224,16,-1,16,224,225,-1,16,225,210,-1,210,225,226,-1,210,226,211,-1,211,226,227,-1,211,227,214,-1,112,111,122,-1,122,111,228,-1,122,228,217,-1,217,228,221,-1,217,221,12,-1,12,221,220,-1,12,220,13,-1,108,229,111,-1,111,229,230,-1,111,230,228,-1,228,230,231,-1,228,231,221,-1,221,231,232,-1,221,232,223,-1,223,232,233,-1,223,233,224,-1,224,233,234,-1,224,234,225,-1,225,234,235,-1,225,235,226,-1,226,235,98,-1,226,98,227,-1,227,98,97,-1,227,97,214,-1,214,97,236,-1,214,236,84,-1,84,236,237,-1,84,237,82,-1,
        ]
    }
}